<svg width="20" height="22" viewBox="0 0 20 22" fill="none" xmlns="http://www.w3.org/2000/svg">
    <g clip-path="url(#clip0_439_729)">
        <path
            d="M4.88281 3.28516C4.88281 3.28516 5.23438 2.93034 5.9375 2.2207C6.64062 1.51107 7.99479 1.15625 10 1.15625C12.0052 1.15625 13.7109 1.86588 15.1172 3.28516C16.5234 4.70443 17.2266 6.40365 17.2266 8.38281C17.2266 9.32031 16.9987 10.388 16.543 11.5859C16.0872 12.7839 15.5664 13.8711 14.9805 14.8477C14.3945 15.8242 13.724 16.8268 12.9688 17.8555C12.2135 18.8841 11.6667 19.5938 11.3281 19.9844C10.9896 20.375 10.7031 20.6875 10.4688 20.9219C10.3385 21.0781 10.1823 21.1562 10 21.1562C9.81771 21.1562 9.66146 21.0781 9.53125 20.9219C9.19271 20.5573 8.77604 20.0625 8.28125 19.4375C7.78646 18.8125 7.05729 17.8359 6.09375 16.5078C5.13021 15.1797 4.33594 13.7799 3.71094 12.3086C3.08594 10.8372 2.77344 9.52865 2.77344 8.38281C2.77344 6.40365 3.47656 4.70443 4.88281 3.28516ZM10 12.0547C11.0156 12.0547 11.875 11.6966 12.5781 10.9805C13.2812 10.2643 13.6328 9.40495 13.6328 8.40234C13.6328 7.39974 13.2812 6.54036 12.5781 5.82422C11.875 5.10807 11.0156 4.75 10 4.75C8.98438 4.75 8.125 5.10807 7.42188 5.82422C6.71875 6.54036 6.36719 7.39323 6.36719 8.38281C6.36719 9.0599 6.52995 9.67839 6.85547 10.2383C7.18099 10.7982 7.6237 11.2409 8.18359 11.5664C8.74349 11.8919 9.34896 12.0547 10 12.0547Z"
            fill="#53AE43" />
    </g>
    <defs>
        <clipPath id="clip0_439_729">
            <rect width="20" height="21" fill="white" transform="matrix(1 0 0 -1 0 21.5)" />
        </clipPath>
    </defs>
</svg>