<svg width="30" height="30" viewBox="0 0 30 30" fill="none" xmlns="http://www.w3.org/2000/svg">
    <rect width="30" height="30" rx="15" fill="#53AE43" />
    <path
        d="M19.7764 12.9961C19.7764 13.0547 19.7764 13.1108 19.7764 13.1646C19.7764 13.2183 19.7764 13.2744 19.7764 13.333C19.7764 14.1631 19.6201 15.0029 19.3076 15.8525C18.9951 16.7021 18.5361 17.4712 17.9307 18.1597C17.3252 18.8481 16.5781 19.4072 15.6895 19.8369C14.8008 20.2764 13.7754 20.4961 12.6133 20.4961C11.9004 20.4961 11.2168 20.396 10.5625 20.1958C9.9082 19.9956 9.30273 19.7148 8.74609 19.3535C8.85352 19.373 8.95605 19.3828 9.05371 19.3828C9.15137 19.3828 9.25391 19.3828 9.36133 19.3828C9.94727 19.3828 10.5063 19.29 11.0386 19.1045C11.5708 18.9189 12.0518 18.6553 12.4814 18.3135C11.9346 18.3037 11.4463 18.1353 11.0166 17.8081C10.5869 17.481 10.2891 17.0684 10.123 16.5703C10.2012 16.5801 10.2817 16.5898 10.3647 16.5996C10.4478 16.6094 10.5283 16.6143 10.6064 16.6143C10.7236 16.6143 10.8359 16.6045 10.9434 16.585C11.0508 16.5654 11.1582 16.5459 11.2656 16.5264C10.6895 16.4092 10.2085 16.1211 9.82275 15.6621C9.43701 15.2031 9.24414 14.666 9.24414 14.0508V14.0215C9.41992 14.1094 9.60303 14.1826 9.79346 14.2412C9.98389 14.2998 10.1816 14.334 10.3867 14.3438C10.0449 14.1191 9.77148 13.8213 9.56641 13.4502C9.36133 13.0791 9.25879 12.6787 9.25879 12.249C9.25879 12.0146 9.29053 11.79 9.354 11.5752C9.41748 11.3604 9.50293 11.1602 9.61035 10.9746C9.92285 11.3555 10.2695 11.7021 10.6504 12.0146C11.0312 12.3271 11.4414 12.5957 11.8809 12.8203C12.3203 13.0449 12.7891 13.2256 13.2871 13.3623C13.7754 13.499 14.2783 13.582 14.7959 13.6113C14.7764 13.5137 14.7617 13.416 14.752 13.3184C14.7422 13.2207 14.7373 13.123 14.7373 13.0254C14.7373 12.332 14.9814 11.7388 15.4697 11.2456C15.958 10.7524 16.5537 10.5059 17.2568 10.5059C17.6182 10.5059 17.9575 10.5791 18.2749 10.7256C18.5923 10.8721 18.8633 11.0674 19.0879 11.3115C19.3809 11.2529 19.6616 11.1724 19.9302 11.0698C20.1987 10.9673 20.4502 10.8428 20.6846 10.6963C20.5967 10.9893 20.4575 11.2554 20.2671 11.4946C20.0767 11.7339 19.8496 11.9316 19.5859 12.0879C19.8398 12.0586 20.0889 12.0098 20.333 11.9414C20.5771 11.873 20.8115 11.79 21.0361 11.6924C20.8604 11.9463 20.6675 12.1831 20.4575 12.4028C20.2476 12.6226 20.0205 12.8203 19.7764 12.9961Z"
        fill="#FCFCFC" />
</svg>