<svg id="Layer_1" data-name="Layer 1" xmlns="http://www.w3.org/2000/svg" viewBox="0 0 601.63 409"><defs><style>.cls-1{font-size:109.63px;font-family:SegoeUI-SemiboldItalic, Segoe UI;font-weight:600;letter-spacing:0.01em;}.cls-1,.cls-10{fill:#c3e867;font-style:italic;}.cls-2{letter-spacing:-0.07em;}.cls-3{letter-spacing:0.01em;}.cls-4{fill:#fff;}.cls-5{fill:#53ae43;}.cls-6{fill:#98cf89;}.cls-7{fill:#b2e54e;}.cls-8{fill:#24995d;}.cls-9{fill:#95ce88;}.cls-10{font-size:38.2px;font-family:SegoeUI-BoldItalic, Segoe UI;font-weight:700;letter-spacing:0.27em;}.cls-11{letter-spacing:0.24em;}.cls-12{letter-spacing:0.27em;}.cls-13{letter-spacing:0.25em;}</style></defs><text class="cls-1" transform="translate(227.85 246.43) scale(0.89 1)">F<tspan class="cls-2" x="56.01" y="0">L</tspan><tspan class="cls-3" x="101.47" y="0">YWEIS</tspan></text><polygon class="cls-4" points="98.17 66.75 175.8 66.75 136.99 0 98.17 66.75"/><polygon class="cls-5" points="50.17 153.98 127.8 153.98 88.99 87.23 50.17 153.98"/><polygon class="cls-6" points="0 241.21 77.63 241.21 38.81 174.46 0 241.21"/><polygon class="cls-7" points="99.95 239.63 177.58 239.63 138.76 172.88 99.95 239.63"/><polygon class="cls-8" points="53.69 328.43 131.32 328.43 92.51 261.68 53.69 328.43"/><polygon class="cls-8" points="174.46 79.79 96.86 81.91 137.44 147.58 174.46 79.79"/><polygon class="cls-7" points="127.28 164.78 49.69 167.24 90.55 232.72 127.28 164.78"/><polygon class="cls-9" points="229.6 167.39 152.01 169.85 192.87 235.34 229.6 167.39"/><polygon class="cls-5" points="181.95 254.29 104.33 253.56 142.53 320.67 181.95 254.29"/><polygon class="cls-4" points="131.32 342.45 53.69 342.07 92.19 409 131.32 342.45"/><text class="cls-10" transform="translate(224.01 292.34) scale(1.06 1)">TECHNO<tspan class="cls-11" x="218.65" y="0">L</tspan><tspan class="cls-12" x="247.24" y="0">O</tspan><tspan class="cls-13" x="286.73" y="0">G</tspan><tspan class="cls-12" x="323.37" y="0">Y</tspan></text></svg>