<svg width="20" height="16" viewBox="0 0 20 16" fill="none" xmlns="http://www.w3.org/2000/svg">
<path d="M0.429688 1.36719C0.221354 1.21094 0.195312 1.01562 0.351562 0.78125C0.690104 0.364583 1.13281 0.15625 1.67969 0.15625H18.3203C18.8672 0.15625 19.3099 0.364583 19.6484 0.78125C19.8047 1.01562 19.7786 1.21094 19.5703 1.36719C14.6745 5.53385 11.6797 8.09896 10.5859 9.0625C10.4036 9.24479 10.2083 9.33594 10 9.33594C9.79167 9.33594 9.58333 9.24479 9.375 9.0625C8.30729 8.09896 5.32552 5.53385 0.429688 1.36719ZM19.2969 2.69531C19.4531 2.59115 19.6094 2.57161 19.7656 2.63672C19.9219 2.70182 20 2.82552 20 3.00781V13.4766C20 13.7891 19.9284 14.0755 19.7852 14.3359C19.6419 14.5964 19.4401 14.7982 19.1797 14.9414C18.9193 15.0846 18.6328 15.1562 18.3203 15.1562H1.67969C1.21094 15.1562 0.813802 14.9935 0.488281 14.668C0.16276 14.3424 0 13.9453 0 13.4766V3.00781C0 2.82552 0.078125 2.70182 0.234375 2.63672C0.390625 2.57161 0.546875 2.59115 0.703125 2.69531C5.13021 6.44531 7.83854 8.77604 8.82812 9.6875C9.16667 10 9.55729 10.1562 10 10.1562C10.4427 10.1562 10.8333 10 11.1719 9.6875C12.1615 8.77604 14.8698 6.44531 19.2969 2.69531Z" fill="#53AE43"/>
</svg>
