<svg width="23" height="23" viewBox="0 0 23 23" fill="none" xmlns="http://www.w3.org/2000/svg">
<path d="M16.2917 13.4167C16.5458 13.4167 16.7896 13.3157 16.9693 13.136C17.149 12.9563 17.25 12.7125 17.25 12.4583C17.25 12.2042 17.149 11.9604 16.9693 11.7807C16.7896 11.601 16.5458 11.5 16.2917 11.5C16.0375 11.5 15.7937 11.601 15.614 11.7807C15.4343 11.9604 15.3333 12.2042 15.3333 12.4583C15.3333 12.7125 15.4343 12.9563 15.614 13.136C15.7937 13.3157 16.0375 13.4167 16.2917 13.4167ZM16.2917 17.25C16.5458 17.25 16.7896 17.149 16.9693 16.9693C17.149 16.7896 17.25 16.5458 17.25 16.2917C17.25 16.0375 17.149 15.7937 16.9693 15.614C16.7896 15.4343 16.5458 15.3333 16.2917 15.3333C16.0375 15.3333 15.7937 15.4343 15.614 15.614C15.4343 15.7937 15.3333 16.0375 15.3333 16.2917C15.3333 16.5458 15.4343 16.7896 15.614 16.9693C15.7937 17.149 16.0375 17.25 16.2917 17.25ZM12.4583 12.4583C12.4583 12.7125 12.3574 12.9563 12.1776 13.136C11.9979 13.3157 11.7542 13.4167 11.5 13.4167C11.2458 13.4167 11.0021 13.3157 10.8224 13.136C10.6426 12.9563 10.5417 12.7125 10.5417 12.4583C10.5417 12.2042 10.6426 11.9604 10.8224 11.7807C11.0021 11.601 11.2458 11.5 11.5 11.5C11.7542 11.5 11.9979 11.601 12.1776 11.7807C12.3574 11.9604 12.4583 12.2042 12.4583 12.4583ZM12.4583 16.2917C12.4583 16.5458 12.3574 16.7896 12.1776 16.9693C11.9979 17.149 11.7542 17.25 11.5 17.25C11.2458 17.25 11.0021 17.149 10.8224 16.9693C10.6426 16.7896 10.5417 16.5458 10.5417 16.2917C10.5417 16.0375 10.6426 15.7937 10.8224 15.614C11.0021 15.4343 11.2458 15.3333 11.5 15.3333C11.7542 15.3333 11.9979 15.4343 12.1776 15.614C12.3574 15.7937 12.4583 16.0375 12.4583 16.2917ZM6.70833 13.4167C6.9625 13.4167 7.20625 13.3157 7.38598 13.136C7.5657 12.9563 7.66667 12.7125 7.66667 12.4583C7.66667 12.2042 7.5657 11.9604 7.38598 11.7807C7.20625 11.601 6.9625 11.5 6.70833 11.5C6.45417 11.5 6.21041 11.601 6.03069 11.7807C5.85097 11.9604 5.75 12.2042 5.75 12.4583C5.75 12.7125 5.85097 12.9563 6.03069 13.136C6.21041 13.3157 6.45417 13.4167 6.70833 13.4167ZM6.70833 17.25C6.9625 17.25 7.20625 17.149 7.38598 16.9693C7.5657 16.7896 7.66667 16.5458 7.66667 16.2917C7.66667 16.0375 7.5657 15.7937 7.38598 15.614C7.20625 15.4343 6.9625 15.3333 6.70833 15.3333C6.45417 15.3333 6.21041 15.4343 6.03069 15.614C5.85097 15.7937 5.75 16.0375 5.75 16.2917C5.75 16.5458 5.85097 16.7896 6.03069 16.9693C6.21041 17.149 6.45417 17.25 6.70833 17.25Z" fill="#53AE43"/>
<path fill-rule="evenodd" clip-rule="evenodd" d="M6.70868 1.67578C6.8993 1.67578 7.08212 1.75151 7.21691 1.8863C7.3517 2.02109 7.42743 2.20391 7.42743 2.39453V3.12574C8.06184 3.11328 8.76047 3.11328 9.52905 3.11328H13.4707C14.2402 3.11328 14.9388 3.11328 15.5733 3.12574V2.39453C15.5733 2.20391 15.649 2.02109 15.7838 1.8863C15.9186 1.75151 16.1014 1.67578 16.292 1.67578C16.4826 1.67578 16.6655 1.75151 16.8002 1.8863C16.935 2.02109 17.0108 2.20391 17.0108 2.39453V3.18707C17.2599 3.20624 17.496 3.23052 17.719 3.25991C18.8421 3.41132 19.7516 3.72949 20.4694 4.44632C21.1862 5.16411 21.5044 6.07357 21.6558 7.19674C21.8024 8.28924 21.8024 9.68361 21.8024 11.445V13.469C21.8024 15.2304 21.8024 16.6258 21.6558 17.7173C21.5044 18.8405 21.1862 19.7499 20.4694 20.4677C19.7516 21.1846 18.8421 21.5027 17.719 21.6542C16.6265 21.8008 15.2321 21.8008 13.4707 21.8008H9.53097C7.76955 21.8008 6.37422 21.8008 5.28268 21.6542C4.15951 21.5027 3.25005 21.1846 2.53226 20.4677C1.81543 19.7499 1.49726 18.8405 1.34584 17.7173C1.19922 16.6248 1.19922 15.2304 1.19922 13.469V11.445C1.19922 9.68361 1.19922 8.28828 1.34584 7.19674C1.49726 6.07357 1.81543 5.16411 2.53226 4.44632C3.25005 3.72949 4.15951 3.41132 5.28268 3.25991C5.50629 3.23052 5.74236 3.20624 5.99089 3.18707V2.39453C5.99089 2.20407 6.06648 2.0214 6.20106 1.88664C6.33565 1.75187 6.51822 1.67604 6.70868 1.67578ZM5.47243 4.68495C4.5093 4.81432 3.95347 5.05774 3.54809 5.46311C3.14272 5.86849 2.8993 6.42432 2.76993 7.38745C2.7482 7.55036 2.72968 7.72254 2.71434 7.90399H20.2863C20.271 7.72254 20.2525 7.55005 20.2308 7.38649C20.1014 6.42336 19.858 5.86753 19.4526 5.46216C19.0472 5.05678 18.4914 4.81336 17.5273 4.68399C16.5431 4.55174 15.2446 4.54982 13.417 4.54982H9.58368C7.75613 4.54982 6.45855 4.5527 5.47243 4.68495ZM2.63576 11.4987C2.63576 10.6803 2.63576 9.96824 2.64822 9.34245H20.3525C20.3649 9.96824 20.3649 10.6803 20.3649 11.4987V13.4154C20.3649 15.2429 20.363 16.5414 20.2308 17.5266C20.1014 18.4897 19.858 19.0456 19.4526 19.4509C19.0472 19.8563 18.4914 20.0997 17.5273 20.2291C16.5431 20.3614 15.2446 20.3633 13.417 20.3633H9.58368C7.75613 20.3633 6.45855 20.3614 5.47243 20.2291C4.5093 20.0997 3.95347 19.8563 3.54809 19.4509C3.14272 19.0456 2.8993 18.4897 2.76993 17.5257C2.63768 16.5414 2.63576 15.2429 2.63576 13.4154V11.4987Z" fill="#53AE43"/>
</svg>
