<svg width="78" height="78" viewBox="0 0 78 78" fill="none" xmlns="http://www.w3.org/2000/svg">
    <rect width="78" height="78" rx="39" fill="#53AE43" />
    <path
        d="M17.68 38.64C17.68 34.0267 18.3467 30.48 19.68 28C21.0133 25.4933 23.4667 24.24 27.04 24.24C30.5867 24.24 33.0267 25.4933 34.36 28C35.6933 30.48 36.36 34.0267 36.36 38.64C36.36 43.3067 35.6933 46.9067 34.36 49.44C33.0267 51.9467 30.5867 53.2 27.04 53.2C23.4667 53.2 21.0133 51.9467 19.68 49.44C18.3467 46.9067 17.68 43.3067 17.68 38.64ZM34.6 38.64C34.6 35.9733 34.4 33.72 34 31.88C33.6267 30.04 32.88 28.5867 31.76 27.52C30.6667 26.4267 29.0933 25.88 27.04 25.88C24.9867 25.88 23.4 26.4267 22.28 27.52C21.1867 28.5867 20.44 30.04 20.04 31.88C19.6667 33.72 19.48 35.9733 19.48 38.64C19.48 41.36 19.6667 43.6533 20.04 45.52C20.44 47.36 21.1867 48.8267 22.28 49.92C23.4 51.0133 24.9867 51.56 27.04 51.56C29.0933 51.56 30.6667 51.0133 31.76 49.92C32.88 48.8267 33.6267 47.36 34 45.52C34.4 43.6533 34.6 41.36 34.6 38.64ZM41.6225 32C41.8625 29.5733 42.7958 27.6667 44.4225 26.28C46.0758 24.8933 48.2492 24.2 50.9425 24.2C52.6758 24.2 54.1558 24.52 55.3825 25.16C56.6092 25.7733 57.5425 26.6133 58.1825 27.68C58.8225 28.7467 59.1425 29.96 59.1425 31.32C59.1425 33.0267 58.6225 34.5067 57.5825 35.76C56.5425 36.9867 54.9558 37.72 52.8225 37.96V38.2C54.8758 38.52 56.5292 39.3067 57.7825 40.56C59.0358 41.8133 59.6625 43.4933 59.6625 45.6C59.6625 47.84 58.9158 49.68 57.4225 51.12C55.9558 52.5333 53.7958 53.24 50.9425 53.24C48.2492 53.24 46.0225 52.52 44.2625 51.08C42.5292 49.64 41.4892 47.6 41.1425 44.96H42.9025C43.2225 46.9333 44.0758 48.5467 45.4625 49.8C46.8492 51.0267 48.6758 51.64 50.9425 51.64C53.2358 51.64 54.9692 51.0667 56.1425 49.92C57.3425 48.7733 57.9425 47.2933 57.9425 45.48C57.9425 43.2933 57.1025 41.6533 55.4225 40.56C53.7692 39.4667 51.3958 38.92 48.3025 38.92H47.5425V37.36H48.3425C54.3692 37.3333 57.3825 35.36 57.3825 31.44C57.3825 29.7333 56.8092 28.36 55.6625 27.32C54.5425 26.28 52.9558 25.76 50.9025 25.76C48.9025 25.76 47.2092 26.2933 45.8225 27.36C44.4625 28.4 43.6492 29.9467 43.3825 32H41.6225Z"
        fill="white" />
</svg>