<svg width="20" height="20" viewBox="0 0 20 20" fill="none" xmlns="http://www.w3.org/2000/svg">
<g clip-path="url(#clip0_395_2998)">
<path d="M0 7.5H20V11.875H0V7.5Z" fill="#E6E7E8"/>
<path d="M16.875 2.8125H3.125C1.05406 2.8125 0 4.35156 0 6.25V7.5H20V6.25C20 4.35156 18.9459 2.8125 16.875 2.8125Z" fill="#FF9933"/>
<path d="M0 13.125C0 15.0234 1.05406 16.5625 3.125 16.5625H16.875C18.9459 16.5625 20 15.0234 20 13.125V11.875H0V13.125Z" fill="#128807"/>
<path fill-rule="evenodd" clip-rule="evenodd" d="M10.0963 7.68164C10.4955 7.68164 10.8858 7.80008 11.2178 8.02197C11.5497 8.24387 11.8084 8.55924 11.9611 8.92819C12.1137 9.29713 12.1535 9.70307 12.0754 10.0946C11.9972 10.4862 11.8047 10.8458 11.5222 11.1279C11.2396 11.41 10.8797 11.602 10.488 11.6795C10.0964 11.757 9.69049 11.7166 9.32178 11.5634C8.95307 11.4101 8.6381 11.151 8.41672 10.8187C8.19534 10.4864 8.07751 10.0959 8.07813 9.69664C8.07912 9.16199 8.29216 8.64957 8.67051 8.27181C9.04886 7.89405 9.5616 7.68181 10.0963 7.68164ZM8.75094 8.55508C8.78563 8.59445 8.79188 8.63664 8.76875 8.67195C8.75901 8.68827 8.74386 8.70065 8.72594 8.70695C8.71221 8.71206 8.69745 8.71376 8.68291 8.71191C8.66838 8.71006 8.65452 8.70471 8.6425 8.69633C8.5882 8.77412 8.54043 8.85628 8.49969 8.94195C8.54688 8.97289 8.5625 9.01164 8.54688 9.05445C8.53852 9.07624 8.52199 9.09392 8.50081 9.10372C8.47963 9.11352 8.45546 9.11468 8.43344 9.10695C8.41094 9.15195 8.36125 9.34195 8.36063 9.38195C8.38117 9.3863 8.39966 9.39741 8.41313 9.41352C8.42702 9.42985 8.43417 9.45085 8.43313 9.47227C8.42719 9.53102 8.39094 9.55602 8.33563 9.5582C8.32688 9.61477 8.32782 9.80414 8.33657 9.84133C8.3949 9.84758 8.42646 9.8731 8.43125 9.91789C8.43813 9.96602 8.415 9.99727 8.35875 10.0191C8.37542 10.1121 8.39959 10.2032 8.43125 10.2926C8.4533 10.286 8.47687 10.2868 8.49844 10.2948C8.51938 10.3038 8.53594 10.3195 8.54469 10.341C8.5524 10.3577 8.55417 10.3753 8.55 10.3938C8.54706 10.4075 8.54099 10.4203 8.53226 10.4313C8.52353 10.4423 8.51238 10.451 8.49969 10.457C8.54157 10.5438 8.58782 10.6257 8.6425 10.7026C8.69125 10.6785 8.73375 10.6841 8.7625 10.7185C8.77504 10.7327 8.78222 10.7508 8.78282 10.7698C8.78371 10.7838 8.78122 10.7978 8.77556 10.8106C8.76991 10.8234 8.76125 10.8347 8.75032 10.8435C8.81261 10.9164 8.87979 10.9836 8.95188 11.0451C8.99282 11.0091 9.03531 11.0035 9.07188 11.0291C9.08854 11.0408 9.09969 11.056 9.10532 11.0748C9.10906 11.088 9.10982 11.102 9.10755 11.1156C9.10529 11.1292 9.10004 11.1422 9.09219 11.1535C9.17115 11.2077 9.25313 11.255 9.33813 11.2954C9.37146 11.2487 9.40875 11.2332 9.45 11.2488C9.46783 11.2552 9.4833 11.2669 9.49438 11.2823C9.50959 11.3073 9.5125 11.3346 9.50313 11.3641C9.59313 11.396 9.68375 11.4204 9.7775 11.437C9.79594 11.3841 9.82782 11.3595 9.87032 11.3626C9.89 11.3641 9.90782 11.3701 9.92344 11.3835C9.94532 11.4035 9.95542 11.429 9.95375 11.4601C10.0496 11.4672 10.1442 11.4672 10.2375 11.4601C10.2444 11.3998 10.2684 11.3695 10.3169 11.3626C10.3353 11.3599 10.354 11.3637 10.37 11.3732C10.3817 11.3799 10.3917 11.3891 10.3994 11.4001C10.407 11.4111 10.4122 11.4237 10.4144 11.437C10.5088 11.4197 10.6002 11.3953 10.6888 11.3638C10.6809 11.3048 10.6953 11.2695 10.735 11.251C10.7495 11.2448 10.7653 11.2423 10.7809 11.2438C10.7974 11.2449 10.8117 11.2505 10.8238 11.2607C10.8353 11.2704 10.845 11.2823 10.8563 11.2945C10.9414 11.2542 11.0232 11.2071 11.1006 11.1535C11.0688 11.1035 11.0875 11.0557 11.1134 11.0345C11.1225 11.0267 11.133 11.0208 11.1443 11.0172C11.1557 11.0135 11.1676 11.0122 11.1795 11.0132C11.1914 11.0142 11.2029 11.0176 11.2135 11.0231C11.224 11.0286 11.2333 11.0362 11.2409 11.0454C11.3131 10.9835 11.3809 10.9163 11.4416 10.8441C11.4063 10.8038 11.3994 10.7613 11.4253 10.7248C11.4359 10.7085 11.452 10.6965 11.4706 10.691C11.484 10.6868 11.4981 10.6856 11.5119 10.6878C11.5257 10.6899 11.5389 10.6952 11.5503 10.7032C11.6049 10.6247 11.6525 10.5427 11.6931 10.4573C11.6473 10.4266 11.6311 10.3908 11.6447 10.3498C11.6497 10.3316 11.6608 10.3156 11.6759 10.3045C11.688 10.2958 11.702 10.2902 11.7166 10.2881C11.7313 10.2859 11.7463 10.2872 11.7603 10.292C11.7806 10.2479 11.8313 10.0623 11.8341 10.0173C11.8125 10.0132 11.793 10.0017 11.7791 9.98477C11.7718 9.97631 11.7664 9.96645 11.7631 9.95581C11.7598 9.94516 11.7588 9.93396 11.76 9.92289C11.7613 9.90312 11.7695 9.88442 11.7831 9.87008C11.7926 9.86031 11.8042 9.85273 11.8169 9.84788C11.8296 9.84302 11.8433 9.841 11.8569 9.84195C11.8647 9.74743 11.8647 9.65242 11.8569 9.55789C11.7972 9.55195 11.7688 9.52883 11.7609 9.48164C11.7575 9.46379 11.7601 9.44531 11.7684 9.42914C11.7749 9.41665 11.7841 9.40584 11.7955 9.39754C11.8068 9.38924 11.8199 9.38369 11.8338 9.38133C11.8174 9.28795 11.793 9.19616 11.7609 9.10695C11.7031 9.11664 11.6675 9.10102 11.6484 9.06102C11.6435 9.05032 11.6407 9.03875 11.6403 9.02697C11.6399 9.0152 11.6418 9.00345 11.646 8.99243C11.6501 8.9814 11.6564 8.97132 11.6645 8.96276C11.6726 8.9542 11.6823 8.94734 11.6931 8.94258C11.6527 8.85666 11.6049 8.77437 11.5503 8.69664C11.5 8.7207 11.4591 8.71508 11.4303 8.6807C11.4176 8.66614 11.4105 8.64752 11.4103 8.6282C11.4097 8.61446 11.4123 8.60077 11.4179 8.58822C11.4236 8.57568 11.4321 8.56465 11.4428 8.55602C11.381 8.48383 11.3139 8.41645 11.2419 8.35445C11.1988 8.39133 11.1569 8.39602 11.1213 8.37039C11.105 8.35968 11.0931 8.34349 11.0878 8.32477C11.084 8.31165 11.0832 8.29783 11.0855 8.28436C11.0877 8.27088 11.093 8.25809 11.1009 8.24695C11.023 8.19264 10.9408 8.14487 10.855 8.10414C10.8229 8.14997 10.7865 8.16591 10.7456 8.15195C10.7276 8.14597 10.7118 8.13463 10.7003 8.11945C10.6921 8.10726 10.6868 8.09329 10.685 8.07869C10.6831 8.06409 10.6847 8.04925 10.6897 8.03539C10.6006 8.00284 10.5088 7.97847 10.4153 7.96258C10.3975 8.0132 10.3653 8.03945 10.3238 8.03695C10.3044 8.03594 10.2858 8.02895 10.2706 8.01695C10.2595 8.00752 10.2509 7.99556 10.2454 7.98206C10.2399 7.96857 10.2377 7.95396 10.2391 7.93945C10.1446 7.93144 10.0497 7.93154 9.95531 7.93977C9.94865 7.99622 9.92448 8.02799 9.88282 8.03508C9.86413 8.03912 9.84463 8.03669 9.8275 8.0282C9.81477 8.02182 9.80371 8.01252 9.79524 8.00106C9.78677 7.98961 9.78112 7.97632 9.77875 7.96227C9.68535 7.97925 9.59348 8.00381 9.50407 8.0357C9.51407 8.09102 9.49844 8.12727 9.46031 8.14695C9.44386 8.1557 9.42604 8.15852 9.40688 8.15539C9.39231 8.15344 9.3785 8.14771 9.36682 8.13877C9.35515 8.12984 9.34601 8.11801 9.34032 8.10445C9.28688 8.12445 9.11688 8.22289 9.09438 8.24758C9.1175 8.29383 9.11219 8.33477 9.08032 8.36414C9.07131 8.3721 9.0608 8.37816 9.0494 8.38197C9.038 8.38579 9.02596 8.38727 9.01398 8.38634C9.002 8.3854 8.99033 8.38207 8.97966 8.37654C8.96899 8.37101 8.95954 8.36339 8.95188 8.35414C8.87991 8.41594 8.81274 8.48311 8.75094 8.55508Z" fill="#010088"/>
<path fill-rule="evenodd" clip-rule="evenodd" d="M10.9614 11.1962C10.9577 11.1922 10.9539 11.1894 10.9511 11.185C10.7694 10.9073 10.5872 10.6299 10.4045 10.3528L10.392 10.3284C10.3495 10.2294 10.308 10.1303 10.2645 10.0316C10.2632 10.0264 10.2612 10.0215 10.2586 10.0169C10.2411 10.0234 10.2252 10.0309 10.2064 10.0381L10.2127 10.0541C10.2517 10.15 10.2892 10.2463 10.3289 10.3422C10.3395 10.3678 10.3439 10.3947 10.3495 10.4216C10.3802 10.565 10.4089 10.7091 10.4398 10.8528L10.5455 11.3662C10.5462 11.3674 10.5464 11.3688 10.5463 11.3702C10.5461 11.3715 10.5455 11.3728 10.5445 11.3737L10.5402 11.3628C10.4545 11.1006 10.3667 10.8388 10.2808 10.5766C10.2636 10.5253 10.2483 10.4747 10.2295 10.4234C10.2208 10.3978 10.218 10.3716 10.2139 10.345C10.203 10.2706 10.1936 10.1956 10.1814 10.1213C10.1795 10.1035 10.1772 10.086 10.1745 10.0688L10.1711 10.0475C10.1523 10.0494 10.1352 10.0519 10.1164 10.0541C10.1164 10.0616 10.1168 10.0693 10.1177 10.0772C10.1286 10.1687 10.138 10.2606 10.1511 10.3519C10.158 10.4019 10.1545 10.4509 10.1517 10.5009L10.1452 10.6278C10.1395 10.7134 10.1352 10.7987 10.1292 10.8841L10.1198 11.0603L10.103 11.3594C10.1005 11.3875 10.0998 11.4162 10.097 11.4437L10.0895 11.3491L10.0798 11.1441L10.0686 10.9612C10.0653 10.8987 10.0617 10.8364 10.058 10.7741L10.0511 10.6519L10.0405 10.4584C10.0373 10.4243 10.0381 10.3899 10.043 10.3559C10.0492 10.3095 10.0549 10.2627 10.0602 10.2156C10.0662 10.1692 10.0719 10.123 10.0773 10.0772L10.0789 10.0541L10.0242 10.0469C10.0223 10.0594 10.0202 10.0718 10.0177 10.0841L9.97766 10.3703C9.97391 10.4075 9.95922 10.4419 9.94672 10.4766C9.85047 10.7699 9.7537 11.063 9.65641 11.3559C9.65422 11.3613 9.65328 11.3663 9.64922 11.3713C9.64901 11.3677 9.64953 11.3644 9.65078 11.3612C9.69099 11.1635 9.73193 10.9659 9.77359 10.7684L9.85484 10.3753L9.86234 10.3537C9.90266 10.2547 9.94141 10.1547 9.98266 10.0556C9.98419 10.0498 9.98629 10.0442 9.98891 10.0388L9.93703 10.0172C9.93484 10.0228 9.93141 10.0275 9.92953 10.0331L9.80109 10.3316C9.79845 10.3391 9.7951 10.3463 9.79109 10.3531C9.6067 10.6325 9.42284 10.9121 9.23953 11.1922C9.23721 11.1965 9.23389 11.2003 9.22984 11.2031L9.23609 11.1897L9.68797 10.2937C9.69192 10.2856 9.69674 10.278 9.70234 10.2709L9.89547 10.0119C9.89953 10.0075 9.90203 10.0034 9.90578 9.99875C9.88984 9.98719 9.87703 9.97656 9.86109 9.96437C9.85755 9.96833 9.85443 9.97219 9.85172 9.97594C9.78422 10.0609 9.71755 10.1457 9.65172 10.2303C9.64464 10.2382 9.63703 10.2459 9.62891 10.2534C9.38266 10.4738 9.13641 10.6928 8.88922 10.9134C8.88443 10.9178 8.87901 10.9216 8.87297 10.9247L8.87922 10.9162C9.08172 10.6898 9.2837 10.4633 9.48516 10.2369C9.49682 10.2244 9.50818 10.2116 9.51922 10.1984C9.54234 10.1718 9.56807 10.1478 9.59641 10.1266L9.82078 9.95C9.82578 9.94625 9.82953 9.94219 9.83516 9.93844L9.80078 9.89437L9.78703 9.90406L9.52891 10.0969C9.51907 10.1038 9.50885 10.1102 9.49828 10.1159C9.20484 10.2641 8.90984 10.4122 8.61578 10.5603C8.61016 10.5628 8.60484 10.5659 8.59828 10.5659L8.61016 10.5575L9.15891 10.1981C9.25474 10.1354 9.35026 10.0725 9.44547 10.0094L9.46922 9.99687C9.56901 9.95458 9.66828 9.91219 9.76703 9.86969C9.77161 9.86802 9.77661 9.86583 9.78203 9.86312L9.76109 9.81156C9.75516 9.81312 9.75141 9.81469 9.74672 9.81625C9.64547 9.85656 9.54516 9.8975 9.44328 9.9375C9.42234 9.94531 9.39953 9.94906 9.37734 9.95375L8.69453 10.0956C8.60859 10.1141 8.52109 10.1322 8.43484 10.15C8.43136 10.1508 8.42773 10.1503 8.42453 10.1487C8.44828 10.141 8.47193 10.1331 8.49547 10.125C8.79047 10.0279 9.08505 9.93062 9.37922 9.83312C9.40234 9.82531 9.42703 9.82312 9.45047 9.81937L9.73422 9.77906L9.75141 9.77531L9.74516 9.72031L9.69953 9.72531L9.51078 9.74812L9.40578 9.76094C9.39745 9.76198 9.38922 9.76229 9.38109 9.76187L9.18234 9.75031L9.06484 9.74375L8.86234 9.73187L8.56703 9.71562C8.49578 9.71187 8.42641 9.70719 8.35547 9.70219C8.36672 9.70125 8.37922 9.69937 8.39141 9.69937L8.63359 9.68562L8.95359 9.6675L9.21859 9.6525L9.38484 9.6425C9.39193 9.6425 9.39891 9.64292 9.40578 9.64375L9.59641 9.66656L9.73141 9.68281H9.74516C9.74672 9.665 9.74953 9.64812 9.75141 9.62875C9.73984 9.62625 9.72672 9.62437 9.71516 9.62219C9.63182 9.61052 9.54859 9.59854 9.46547 9.58625L9.41359 9.57937C9.40404 9.57806 9.39462 9.57586 9.38547 9.57281C9.13703 9.49125 8.89016 9.40906 8.64203 9.3275L8.43516 9.25875C8.42928 9.25697 8.4237 9.25434 8.41859 9.25094L8.46203 9.25969L8.99234 9.37C9.13422 9.39969 9.27828 9.42906 9.42016 9.45906L9.44516 9.46687C9.54516 9.50625 9.64422 9.54687 9.74516 9.58687L9.76016 9.59281C9.76703 9.57594 9.77432 9.55875 9.78203 9.54125C9.77691 9.53827 9.77158 9.53566 9.76609 9.53344C9.66672 9.49135 9.56755 9.44885 9.46859 9.40594L9.44609 9.39437C9.16578 9.21094 8.88672 9.02656 8.60609 8.84281C8.60234 8.84083 8.59936 8.83764 8.59766 8.83375L8.60891 8.84C8.88828 8.98062 9.16797 9.12115 9.44797 9.26156C9.49422 9.28469 9.53922 9.3125 9.58047 9.34406C9.64859 9.39687 9.71797 9.4475 9.78734 9.49937L9.80109 9.50906L9.83547 9.46562L9.82328 9.455L9.56922 9.25531C9.56089 9.24844 9.55318 9.24125 9.54609 9.23375C9.32464 8.98583 9.10349 8.73792 8.88266 8.49C8.87965 8.48727 8.87721 8.48398 8.87547 8.48031C8.88203 8.48094 8.88453 8.48531 8.88734 8.48812C9.02109 8.60687 9.15443 8.72562 9.28734 8.84437L9.63172 9.15125C9.63797 9.15729 9.64391 9.16354 9.64953 9.17L9.84672 9.42062C9.85172 9.42625 9.85547 9.43219 9.86109 9.43969L9.90641 9.405C9.90359 9.40062 9.89984 9.39719 9.89766 9.39312C9.83349 9.30708 9.76901 9.22115 9.70422 9.13531C9.69747 9.12526 9.69132 9.11483 9.68578 9.10406C9.53599 8.80823 9.38672 8.5124 9.23797 8.21656C9.23516 8.21094 9.23234 8.20656 9.23172 8.20062L9.23922 8.20937L9.55859 8.6975L9.78453 9.04125C9.79234 9.05437 9.80109 9.06812 9.80609 9.0825C9.84797 9.17875 9.88922 9.2751 9.92984 9.37156C9.93234 9.37573 9.93484 9.38062 9.93734 9.38625L9.98922 9.36469L9.98359 9.35156C9.94484 9.25406 9.90589 9.15677 9.86672 9.05969C9.85578 9.035 9.85172 9.00937 9.84641 8.98375C9.81234 8.82094 9.77953 8.65781 9.74547 8.49469C9.71203 8.33781 9.68016 8.18219 9.64734 8.02469C9.64693 8.02406 9.64734 8.02229 9.64859 8.01937L9.67609 8.10281C9.77422 8.3976 9.87141 8.69271 9.96766 8.98812C9.97578 9.01125 9.97859 9.03656 9.98203 9.06062C9.99328 9.14271 10.0054 9.225 10.0183 9.3075C10.0205 9.32313 10.0214 9.33875 10.0245 9.35594L10.0789 9.34906V9.32844L10.0552 9.1325C10.0505 9.09437 10.047 9.05719 10.0417 9.02C10.0387 8.99499 10.0387 8.9697 10.0417 8.94469L10.0489 8.81781L10.0642 8.56312C10.067 8.5175 10.068 8.47125 10.0708 8.42562C10.0747 8.36604 10.0783 8.30625 10.0814 8.24625C10.0841 8.2025 10.0864 8.15875 10.0883 8.115C10.091 8.06354 10.0946 8.01219 10.0992 7.96094C10.1003 7.9749 10.1011 7.98937 10.1017 8.00437C10.1059 8.06708 10.1096 8.13 10.113 8.19312L10.1292 8.47937L10.1389 8.64L10.1536 8.91875L10.1567 8.95969C10.1608 8.99594 10.1536 9.03187 10.1505 9.06781L10.1305 9.23156C10.1273 9.2625 10.1227 9.29344 10.1189 9.32469C10.1183 9.33219 10.1183 9.34031 10.1161 9.34937C10.1355 9.35219 10.153 9.35406 10.1723 9.35656C10.1752 9.34312 10.1764 9.33062 10.1786 9.3175C10.1936 9.21604 10.2082 9.11427 10.2223 9.01219C10.2236 9.00469 10.2267 8.99687 10.2286 8.98906C10.3305 8.68344 10.4305 8.3775 10.5317 8.07125C10.5367 8.05719 10.5405 8.04375 10.5483 8.03031L10.5448 8.05156C10.4992 8.27281 10.4517 8.49344 10.4064 8.71406C10.386 8.8176 10.3648 8.92115 10.343 9.02469C10.3414 9.03325 10.3387 9.04156 10.3348 9.04937L10.2142 9.35094C10.2121 9.3551 10.2102 9.36 10.2083 9.36562C10.227 9.37281 10.2423 9.38 10.2605 9.38719L10.2677 9.37219L10.3936 9.07625C10.3986 9.06625 10.4023 9.05656 10.4089 9.04844L10.9542 8.21656C10.9577 8.21219 10.9605 8.20781 10.9658 8.20469C10.9639 8.20906 10.9617 8.21344 10.9592 8.21781L10.5108 9.10844C10.5062 9.11698 10.5012 9.1251 10.4958 9.13281L10.3014 9.39187L10.2911 9.40594L10.3355 9.44062L10.3452 9.42875C10.4112 9.34437 10.4777 9.2599 10.5445 9.17531C10.5519 9.16579 10.5602 9.157 10.5692 9.14906C10.8161 8.92844 11.0632 8.70812 11.3105 8.48812C11.3145 8.48469 11.3173 8.48125 11.3239 8.47937L11.3158 8.48937C11.2152 8.60333 11.1137 8.71698 11.0114 8.83031C10.8899 8.96615 10.7689 9.10198 10.6483 9.23781C10.6416 9.24469 10.6348 9.25083 10.628 9.25625L10.3739 9.45594L10.3614 9.46594C10.3733 9.48094 10.3839 9.49531 10.3964 9.51031L10.4098 9.50031L10.6702 9.30531L10.6908 9.29219C10.9904 9.14177 11.2891 8.99135 11.587 8.84094C11.5916 8.83844 11.5964 8.83708 11.6014 8.83687C11.5881 8.84583 11.5746 8.85458 11.5611 8.86312L10.7511 9.39469C10.7438 9.39927 10.7363 9.40333 10.7286 9.40687C10.6289 9.45 10.5283 9.4925 10.4295 9.53531L10.4136 9.54156C10.422 9.55906 10.428 9.57562 10.4355 9.59312L10.4498 9.58844C10.5502 9.54875 10.6498 9.50719 10.7511 9.46875C10.7761 9.45875 10.8036 9.45437 10.8308 9.44875L11.2911 9.35312C11.4342 9.32375 11.5761 9.29375 11.7195 9.26406C11.7322 9.26115 11.7453 9.25844 11.7586 9.25594C11.762 9.25594 11.7652 9.25531 11.7702 9.25719L11.7264 9.27156C11.4214 9.3726 11.1164 9.47302 10.8114 9.57281C10.7883 9.58094 10.7627 9.58312 10.7386 9.58687L10.5361 9.61594L10.4633 9.62625L10.4455 9.62937C10.4473 9.64781 10.4502 9.665 10.4514 9.685L10.4986 9.68L10.6673 9.66C10.7095 9.65469 10.7536 9.64875 10.7977 9.64469C10.8173 9.64312 10.8373 9.645 10.8577 9.64594C10.9005 9.64781 10.9433 9.65156 10.988 9.65344L11.2405 9.66844L11.3542 9.67469L11.6117 9.68937C11.6727 9.69312 11.7355 9.69594 11.7961 9.69969C11.8111 9.7005 11.8261 9.70185 11.8411 9.70375L11.7955 9.7075L11.6064 9.71781L11.3723 9.73156L11.1958 9.74094C11.1145 9.74594 11.0317 9.75062 10.9498 9.75594C10.9048 9.75781 10.8586 9.76219 10.8133 9.7625C10.7873 9.76312 10.7602 9.75812 10.7348 9.75531L10.5683 9.73531L10.4617 9.7225H10.4514C10.4497 9.74042 10.4478 9.75875 10.4455 9.7775L10.7761 9.82531C10.8086 9.82937 10.837 9.84219 10.8677 9.85187L11.7564 10.1453C11.7623 10.1461 11.7678 10.1486 11.7723 10.1525C11.7651 10.1512 11.7577 10.1502 11.7502 10.1494L10.9783 9.98844L10.7745 9.94594C10.768 9.94406 10.7592 9.94156 10.752 9.93812C10.6518 9.89833 10.5512 9.85812 10.4502 9.8175L10.4367 9.81281L10.4139 9.86375L10.4305 9.87156C10.5301 9.91385 10.6293 9.95635 10.7283 9.99906C10.736 10.0024 10.7439 10.0068 10.752 10.0122L11.5839 10.5572C11.588 10.5603 11.5933 10.5641 11.5967 10.57C11.5923 10.5679 11.5883 10.5657 11.5845 10.5634L11.1511 10.3459C10.9996 10.2693 10.8474 10.1926 10.6945 10.1159C10.6847 10.1112 10.6756 10.1052 10.6673 10.0981L10.4086 9.905L10.3964 9.89625C10.3845 9.91062 10.3739 9.92469 10.3614 9.93969L10.3733 9.94906C10.457 10.0159 10.5423 10.0828 10.6264 10.1494C10.6359 10.1563 10.6446 10.1643 10.6523 10.1731L11.3145 10.9141C11.3175 10.9176 11.3196 10.9218 11.3208 10.9262C11.3173 10.9225 11.3127 10.92 11.3092 10.9172C11.0607 10.6953 10.8119 10.4736 10.563 10.2522C10.5573 10.2472 10.5523 10.2415 10.548 10.2353L10.3455 9.97719C10.3426 9.97323 10.3393 9.96927 10.3358 9.96531C10.3214 9.97719 10.3073 9.98781 10.293 10.0003C10.2944 10.0043 10.2966 10.0081 10.2995 10.0119L10.4961 10.2737C10.5015 10.2815 10.5065 10.2896 10.5111 10.2978L10.9577 11.1856C10.9602 11.1896 10.9618 11.1941 10.9623 11.1987H10.9614V11.1962Z" fill="#010088"/>
<path fill-rule="evenodd" clip-rule="evenodd" d="M10.959 11.1953L10.9665 11.2047C10.9649 11.2053 10.9649 11.2062 10.963 11.2066C10.9624 11.2022 10.9602 11.1994 10.9596 11.1953H10.959Z" fill="#010088"/>
</g>
<defs>
<clipPath id="clip0_395_2998">
<rect width="20" height="20" fill="white"/>
</clipPath>
</defs>
</svg>
