<svg width="160" height="160" viewBox="0 0 160 160" fill="none" xmlns="http://www.w3.org/2000/svg">
<rect width="160" height="160" rx="80" fill="#53AE43"/>
<path d="M46.288 79.024C46.288 71.6427 47.3547 65.968 49.488 62C51.6213 57.9893 55.5467 55.984 61.264 55.984C66.9387 55.984 70.8427 57.9893 72.976 62C75.1093 65.968 76.176 71.6427 76.176 79.024C76.176 86.4907 75.1093 92.2507 72.976 96.304C70.8427 100.315 66.9387 102.32 61.264 102.32C55.5467 102.32 51.6213 100.315 49.488 96.304C47.3547 92.2507 46.288 86.4907 46.288 79.024ZM73.36 79.024C73.36 74.7573 73.04 71.152 72.4 68.208C71.8027 65.264 70.608 62.9387 68.816 61.232C67.0667 59.4827 64.5493 58.608 61.264 58.608C57.9787 58.608 55.44 59.4827 53.648 61.232C51.8987 62.9387 50.704 65.264 50.064 68.208C49.4667 71.152 49.168 74.7573 49.168 79.024C49.168 83.376 49.4667 87.0453 50.064 90.032C50.704 92.976 51.8987 95.3227 53.648 97.072C55.44 98.8213 57.9787 99.696 61.264 99.696C64.5493 99.696 67.0667 98.8213 68.816 97.072C70.608 95.3227 71.8027 92.976 72.4 90.032C73.04 87.0453 73.36 83.376 73.36 79.024ZM84.596 68.4C84.98 64.5173 86.4733 61.4667 89.076 59.248C91.7213 57.0293 95.1987 55.92 99.508 55.92C102.281 55.92 104.649 56.432 106.612 57.456C108.575 58.4373 110.068 59.7813 111.092 61.488C112.116 63.1947 112.628 65.136 112.628 67.312C112.628 70.0427 111.796 72.4107 110.132 74.416C108.468 76.3787 105.929 77.552 102.516 77.936V78.32C105.801 78.832 108.447 80.0907 110.452 82.096C112.457 84.1013 113.46 86.7893 113.46 90.16C113.46 93.744 112.265 96.688 109.876 98.992C107.529 101.253 104.073 102.384 99.508 102.384C95.1987 102.384 91.636 101.232 88.82 98.928C86.0467 96.624 84.3827 93.36 83.828 89.136H86.644C87.156 92.2933 88.5213 94.8747 90.74 96.88C92.9587 98.8427 95.8813 99.824 99.508 99.824C103.177 99.824 105.951 98.9067 107.828 97.072C109.748 95.2373 110.708 92.8693 110.708 89.968C110.708 86.4693 109.364 83.8453 106.676 82.096C104.031 80.3467 100.233 79.472 95.284 79.472H94.068V76.976H95.348C104.991 76.9333 109.812 73.776 109.812 67.504C109.812 64.7733 108.895 62.576 107.06 60.912C105.268 59.248 102.729 58.416 99.444 58.416C96.244 58.416 93.5347 59.2693 91.316 60.976C89.14 62.64 87.8387 65.1147 87.412 68.4H84.596Z" fill="white"/>
</svg>
