<svg width="21" height="21" viewBox="0 0 21 21" fill="none" xmlns="http://www.w3.org/2000/svg">
<path d="M0 7.875H21V12.4688H0V7.875Z" fill="#E6E7E8"/>
<path d="M17.7188 2.95312H3.28125C1.10677 2.95312 0 4.56914 0 6.5625V7.875H21V6.5625C21 4.56914 19.8932 2.95312 17.7188 2.95312Z" fill="#FF9933"/>
<path d="M0 13.7812C0 15.7746 1.10677 17.3906 3.28125 17.3906H17.7188C19.8932 17.3906 21 15.7746 21 13.7812V12.4688H0V13.7812Z" fill="#128807"/>
<path fill-rule="evenodd" clip-rule="evenodd" d="M10.6015 8.06641C11.0207 8.06641 11.4305 8.19077 11.7791 8.42376C12.1276 8.65674 12.3992 8.98789 12.5595 9.37528C12.7198 9.76267 12.7616 10.1889 12.6795 10.6C12.5975 11.0112 12.3954 11.3888 12.0987 11.685C11.802 11.9812 11.4241 12.1828 11.0128 12.2642C10.6016 12.3455 10.1754 12.3031 9.78826 12.1422C9.40112 11.9813 9.0704 11.7092 8.83795 11.3603C8.6055 11.0114 8.48178 10.6014 8.48242 10.1822C8.48347 9.62078 8.70716 9.08274 9.10442 8.68609C9.50169 8.28944 10.0401 8.06658 10.6015 8.06641ZM9.18888 8.98352C9.2253 9.02486 9.23186 9.06916 9.20758 9.10623C9.19735 9.12336 9.18145 9.13637 9.16263 9.14298C9.14821 9.14834 9.13271 9.15013 9.11745 9.14819C9.10219 9.14624 9.08763 9.14063 9.07502 9.13183C9.018 9.21351 8.96785 9.29977 8.92507 9.38973C8.97461 9.42222 8.99102 9.46291 8.97461 9.50786C8.96583 9.53074 8.94848 9.5493 8.92624 9.55959C8.904 9.56988 8.87863 9.5711 8.8555 9.56298C8.83188 9.61023 8.77971 9.80973 8.77905 9.85173C8.80062 9.8563 8.82003 9.86797 8.83417 9.88487C8.84876 9.90202 8.85627 9.92408 8.85517 9.94656C8.84894 10.0082 8.81088 10.0345 8.7528 10.0368C8.74361 10.0962 8.7446 10.295 8.75378 10.3341C8.81503 10.3406 8.84817 10.3674 8.85321 10.4145C8.86042 10.465 8.83614 10.4978 8.77708 10.5208C8.79458 10.6183 8.81996 10.714 8.85321 10.8079C8.87635 10.801 8.90111 10.8018 8.92375 10.8102C8.94574 10.8197 8.96313 10.8361 8.97232 10.8587C8.98041 10.8762 8.98227 10.8947 8.97789 10.9142C8.97481 10.9286 8.96843 10.942 8.95927 10.9536C8.9501 10.9651 8.93839 10.9743 8.92507 10.9805C8.96903 11.0717 9.0176 11.1577 9.07502 11.2384C9.12621 11.2131 9.17083 11.219 9.20102 11.2551C9.21418 11.27 9.22173 11.2891 9.22235 11.3089C9.22328 11.3236 9.22067 11.3383 9.21473 11.3518C9.20879 11.3653 9.1997 11.3771 9.18822 11.3864C9.25363 11.4629 9.32417 11.5335 9.39986 11.598C9.44285 11.5603 9.48747 11.5544 9.52586 11.5813C9.54336 11.5935 9.55507 11.6095 9.56097 11.6292C9.5649 11.6431 9.5657 11.6578 9.56332 11.6721C9.56094 11.6864 9.55543 11.7 9.54719 11.7119C9.6301 11.7687 9.71617 11.8184 9.80542 11.8608C9.84042 11.8118 9.87958 11.7955 9.92289 11.812C9.94162 11.8187 9.95786 11.8309 9.96949 11.8471C9.98546 11.8733 9.98852 11.902 9.97867 11.933C10.0732 11.9665 10.1683 11.9921 10.2668 12.0095C10.2861 11.954 10.3196 11.9281 10.3642 11.9314C10.3849 11.933 10.4036 11.9393 10.42 11.9534C10.443 11.9744 10.4536 12.0012 10.4518 12.0338C10.5525 12.0412 10.6518 12.0412 10.7498 12.0338C10.757 11.9704 10.7823 11.9386 10.8331 11.9314C10.8524 11.9286 10.8721 11.9326 10.8889 11.9425C10.9011 11.9496 10.9117 11.9592 10.9197 11.9708C10.9278 11.9823 10.9332 11.9956 10.9355 12.0095C11.0346 11.9913 11.1306 11.9657 11.2236 11.9327C11.2154 11.8707 11.2305 11.8336 11.2721 11.8142C11.2873 11.8077 11.3039 11.8051 11.3204 11.8067C11.3377 11.8078 11.3526 11.8137 11.3653 11.8244C11.3775 11.8346 11.3876 11.8471 11.3995 11.8599C11.4889 11.8176 11.5747 11.7682 11.656 11.7119C11.6226 11.6594 11.6423 11.6092 11.6695 11.5869C11.679 11.5787 11.69 11.5725 11.7019 11.5687C11.7138 11.5649 11.7264 11.5635 11.7388 11.5645C11.7513 11.5656 11.7634 11.5691 11.7745 11.5749C11.7856 11.5807 11.7954 11.5887 11.8034 11.5983C11.8792 11.5334 11.9504 11.4628 12.014 11.387C11.977 11.3447 11.9697 11.3001 11.997 11.2617C12.0081 11.2446 12.025 11.232 12.0445 11.2263C12.0585 11.2218 12.0734 11.2206 12.0879 11.2228C12.1024 11.2251 12.1162 11.2306 12.1282 11.239C12.1855 11.1566 12.2355 11.0705 12.2782 10.9808C12.23 10.9487 12.2131 10.911 12.2273 10.8679C12.2326 10.8489 12.2442 10.8321 12.2601 10.8204C12.2728 10.8113 12.2874 10.8054 12.3028 10.8031C12.3182 10.8009 12.334 10.8023 12.3487 10.8072C12.37 10.761 12.4232 10.5661 12.4262 10.5188C12.4035 10.5145 12.3831 10.5025 12.3684 10.4847C12.3608 10.4758 12.3551 10.4655 12.3516 10.4543C12.3482 10.4431 12.3471 10.4313 12.3484 10.4197C12.3497 10.399 12.3583 10.3793 12.3727 10.3643C12.3827 10.354 12.3948 10.3461 12.4081 10.341C12.4215 10.3359 12.4358 10.3337 12.4501 10.3347C12.4583 10.2355 12.4583 10.1357 12.4501 10.0365C12.3874 10.0302 12.3576 10.006 12.3494 9.95641C12.3458 9.93767 12.3485 9.91826 12.3573 9.90128C12.364 9.88817 12.3737 9.87681 12.3856 9.8681C12.3975 9.85939 12.4113 9.85356 12.4258 9.85108C12.4086 9.75304 12.3831 9.65665 12.3494 9.56298C12.2887 9.57316 12.2513 9.55675 12.2313 9.51475C12.2261 9.50352 12.2232 9.49137 12.2227 9.479C12.2223 9.46664 12.2243 9.45431 12.2286 9.44273C12.233 9.43116 12.2396 9.42057 12.2481 9.41158C12.2566 9.40259 12.2669 9.39539 12.2782 9.39039C12.2357 9.30017 12.1855 9.21378 12.1282 9.13216C12.0754 9.15742 12.0324 9.15152 12.0022 9.11542C11.9889 9.10013 11.9814 9.08058 11.9812 9.0603C11.9806 9.04587 11.9833 9.03149 11.9892 9.01832C11.9952 9.00515 12.0041 8.99356 12.0153 8.9845C11.9505 8.90871 11.88 8.83796 11.8044 8.77286C11.7591 8.81158 11.7151 8.8165 11.6777 8.78959C11.6606 8.77835 11.6482 8.76135 11.6426 8.74169C11.6386 8.72791 11.6377 8.71341 11.6401 8.69926C11.6425 8.68511 11.6481 8.67168 11.6564 8.65998C11.5746 8.60295 11.4882 8.5528 11.3981 8.51003C11.3645 8.55816 11.3262 8.57489 11.2833 8.56023C11.2643 8.55395 11.2478 8.54205 11.2357 8.52611C11.2271 8.51331 11.2215 8.49864 11.2196 8.48331C11.2177 8.46797 11.2194 8.4524 11.2246 8.43784C11.1311 8.40367 11.0346 8.37808 10.9365 8.36139C10.9178 8.41455 10.884 8.44211 10.8403 8.43948C10.82 8.43842 10.8005 8.43108 10.7845 8.41848C10.7729 8.40858 10.7638 8.39602 10.758 8.38185C10.7523 8.36769 10.75 8.35234 10.7514 8.33711C10.6523 8.3287 10.5526 8.32881 10.4535 8.33744C10.4465 8.39672 10.4211 8.43008 10.3773 8.43752C10.3577 8.44176 10.3373 8.43921 10.3193 8.4303C10.3059 8.42359 10.2943 8.41383 10.2854 8.4018C10.2765 8.38977 10.2706 8.37581 10.2681 8.36106C10.17 8.3789 10.0735 8.40469 9.97966 8.43817C9.99016 8.49625 9.97375 8.53431 9.93372 8.55498C9.91644 8.56417 9.89774 8.56713 9.87761 8.56384C9.86231 8.56179 9.84781 8.55577 9.83556 8.54639C9.8233 8.53701 9.8137 8.52459 9.80772 8.51036C9.75161 8.53136 9.57311 8.63472 9.54949 8.66064C9.57377 8.7092 9.56819 8.75219 9.53472 8.78303C9.52526 8.79138 9.51423 8.79775 9.50226 8.80176C9.4903 8.80576 9.47765 8.80732 9.46507 8.80634C9.45249 8.80536 9.44024 8.80186 9.42903 8.79605C9.41783 8.79025 9.40791 8.78225 9.39986 8.77253C9.3243 8.83742 9.25377 8.90795 9.18888 8.98352Z" fill="#010088"/>
<path fill-rule="evenodd" clip-rule="evenodd" d="M11.5097 11.7565C11.5057 11.7522 11.5018 11.7492 11.4988 11.7446C11.3081 11.453 11.1168 11.1618 10.925 10.8708L10.9118 10.8452C10.8672 10.7412 10.8236 10.6372 10.778 10.5335C10.7765 10.5281 10.7744 10.523 10.7717 10.5181C10.7533 10.525 10.7366 10.5329 10.7169 10.5404L10.7235 10.5572C10.7645 10.6579 10.8039 10.759 10.8455 10.8597C10.8567 10.8866 10.8613 10.9148 10.8672 10.943C10.8994 11.0936 10.9295 11.2449 10.962 11.3958L11.0729 11.935C11.0737 11.9362 11.0739 11.9376 11.0738 11.9391C11.0736 11.9405 11.073 11.9418 11.072 11.9428L11.0674 11.9313C10.9775 11.656 10.8853 11.3811 10.795 11.1058C10.777 11.052 10.7609 10.9988 10.7412 10.945C10.732 10.9181 10.7291 10.8905 10.7248 10.8626C10.7133 10.7845 10.7035 10.7058 10.6907 10.6277C10.6887 10.6091 10.6863 10.5907 10.6835 10.5726L10.6798 10.5503C10.6602 10.5522 10.6421 10.5549 10.6224 10.5572C10.6224 10.565 10.6229 10.5731 10.6237 10.5814C10.6352 10.6776 10.6451 10.774 10.6588 10.8699C10.6661 10.9224 10.6625 10.9739 10.6595 11.0264L10.6526 11.1596C10.6467 11.2495 10.6421 11.3391 10.6359 11.4287L10.626 11.6137L10.6083 11.9277C10.6057 11.9573 10.605 11.9875 10.6021 12.0163L10.5942 11.9169L10.584 11.7017L10.5722 11.5097C10.5687 11.4441 10.565 11.3786 10.5611 11.3132L10.5538 11.1849L10.5427 10.9817C10.5393 10.9459 10.5402 10.9098 10.5453 10.8741C10.5519 10.8253 10.5579 10.7762 10.5634 10.7268C10.5697 10.678 10.5757 10.6296 10.5814 10.5814L10.583 10.5572L10.5256 10.5496C10.5237 10.5627 10.5214 10.5758 10.5187 10.5887L10.4767 10.8892C10.4728 10.9283 10.4574 10.9644 10.4443 11.0008C10.3432 11.3088 10.2416 11.6166 10.1394 11.9241C10.1371 11.9297 10.1361 11.935 10.1319 11.9402C10.1317 11.9365 10.1322 11.933 10.1335 11.9297C10.1757 11.7221 10.2187 11.5146 10.2625 11.3072L10.3478 10.8945L10.3557 10.8718C10.398 10.7678 10.4387 10.6628 10.482 10.5588C10.4836 10.5527 10.4858 10.5468 10.4885 10.5411L10.4341 10.5184C10.4318 10.5243 10.4282 10.5293 10.4262 10.5352L10.2913 10.8485C10.2886 10.8564 10.2851 10.864 10.2808 10.8712C10.0872 11.1645 9.89418 11.4581 9.7017 11.7522C9.69927 11.7568 9.69578 11.7607 9.69153 11.7637L9.69809 11.7496L10.1726 10.8088C10.1767 10.8003 10.1818 10.7923 10.1877 10.7849L10.3904 10.5129C10.3947 10.5083 10.3973 10.504 10.4013 10.4991C10.3845 10.4869 10.3711 10.4758 10.3543 10.463C10.3506 10.4671 10.3473 10.4712 10.3445 10.4751C10.2736 10.5644 10.2036 10.6534 10.1345 10.7422C10.1271 10.7505 10.1191 10.7586 10.1105 10.7665C9.85198 10.9978 9.59342 11.2278 9.33388 11.4595C9.32884 11.4641 9.32316 11.468 9.31681 11.4713L9.32338 11.4625C9.536 11.2247 9.74808 10.9869 9.95961 10.7491C9.97186 10.736 9.98378 10.7225 9.99538 10.7087C10.0197 10.6807 10.0467 10.6556 10.0764 10.6333L10.312 10.4479C10.3173 10.444 10.3212 10.4397 10.3271 10.4357L10.291 10.3895L10.2766 10.3997L10.0055 10.6021C9.99522 10.6094 9.98449 10.6161 9.97339 10.6221C9.66528 10.7777 9.35553 10.9332 9.04677 11.0887C9.04086 11.0913 9.03528 11.0946 9.02839 11.0946L9.04086 11.0858L9.61705 10.7084C9.71767 10.6426 9.81797 10.5765 9.91794 10.5102L9.94288 10.4971C10.0477 10.4527 10.1519 10.4082 10.2556 10.3636C10.2604 10.3618 10.2656 10.3595 10.2713 10.3567L10.2493 10.3025C10.2431 10.3042 10.2392 10.3058 10.2343 10.3075C10.1279 10.3498 10.0226 10.3928 9.91564 10.4348C9.89366 10.443 9.8697 10.4469 9.84641 10.4518L9.12945 10.6008C9.03922 10.6202 8.94734 10.6392 8.85678 10.6579C8.85313 10.6587 8.84931 10.6582 8.84595 10.6566C8.87089 10.6485 8.89572 10.6402 8.92044 10.6316C9.23019 10.5297 9.5395 10.4275 9.84838 10.3252C9.87266 10.317 9.89858 10.3147 9.92319 10.3107L10.2211 10.2684L10.2392 10.2645L10.2326 10.2067L10.1847 10.212L9.98652 10.2359L9.87627 10.2494C9.86752 10.2505 9.85888 10.2508 9.85034 10.2504L9.64166 10.2382L9.51828 10.2313L9.30566 10.2189L8.99558 10.2018C8.92077 10.1979 8.84792 10.1929 8.77344 10.1877C8.78525 10.1867 8.79838 10.1847 8.81117 10.1847L9.06547 10.1703L9.40147 10.1513L9.67972 10.1355L9.85428 10.125C9.86172 10.125 9.86905 10.1255 9.87627 10.1263L10.0764 10.1503L10.2182 10.1673H10.2326C10.2343 10.1486 10.2372 10.1309 10.2392 10.1106C10.227 10.108 10.2132 10.106 10.2011 10.1037C10.1136 10.0914 10.0262 10.0789 9.93894 10.066L9.88447 10.0587C9.87443 10.0574 9.86455 10.055 9.85494 10.0518C9.59408 9.9662 9.33486 9.87991 9.07433 9.79427L8.85711 9.72208C8.85094 9.72021 8.84508 9.71745 8.83972 9.71387L8.88533 9.72306L9.44216 9.83889C9.59113 9.87006 9.74239 9.90091 9.89136 9.93241L9.91761 9.94061C10.0226 9.98195 10.1266 10.0246 10.2326 10.0666L10.2484 10.0728C10.2556 10.0551 10.2632 10.0371 10.2713 10.0187C10.266 10.0156 10.2604 10.0128 10.2546 10.0105C10.1502 9.96631 10.0461 9.92169 9.94222 9.87662L9.91859 9.86448C9.62427 9.67188 9.33125 9.47828 9.03659 9.28534C9.03265 9.28327 9.02953 9.27991 9.02773 9.27583L9.03955 9.28239C9.33289 9.43005 9.62656 9.57759 9.92056 9.72503C9.96913 9.74931 10.0164 9.77852 10.0597 9.81166C10.1312 9.86711 10.2041 9.92027 10.2769 9.97473L10.2913 9.98491L10.3274 9.9393L10.3146 9.92814L10.0479 9.71847C10.0391 9.71125 10.031 9.7037 10.0236 9.69583C9.79106 9.43552 9.55886 9.1752 9.32698 8.91489C9.32383 8.91202 9.32127 8.90857 9.31944 8.90472C9.32633 8.90537 9.32895 8.90997 9.33191 8.91292C9.47234 9.03761 9.61234 9.1623 9.75191 9.28698L10.1135 9.6092C10.1201 9.61555 10.1263 9.62211 10.1322 9.62889L10.3393 9.89205C10.3445 9.89795 10.3484 9.90419 10.3543 9.91206L10.4019 9.87564C10.399 9.87105 10.395 9.86744 10.3927 9.86317C10.3254 9.77283 10.2577 9.68259 10.1896 9.59247C10.1825 9.58192 10.1761 9.57096 10.1703 9.55966C10.013 9.24903 9.85625 8.93841 9.70006 8.62778C9.69711 8.62187 9.69416 8.61728 9.6935 8.61105L9.70138 8.62023L10.0367 9.13277L10.274 9.4937C10.2822 9.50748 10.2913 9.52192 10.2966 9.53702C10.3406 9.63808 10.3839 9.73925 10.4265 9.84053C10.4292 9.84491 10.4318 9.85005 10.4344 9.85595L10.4889 9.83331L10.483 9.81953C10.4423 9.71716 10.4014 9.615 10.3603 9.51306C10.3488 9.48714 10.3445 9.46023 10.3389 9.43333C10.3032 9.26237 10.2687 9.09109 10.2329 8.91981C10.1978 8.75509 10.1644 8.59169 10.1299 8.42631C10.1295 8.42566 10.1299 8.4238 10.1312 8.42073L10.1601 8.50834C10.2631 8.81787 10.3652 9.12773 10.4662 9.43792C10.4748 9.4622 10.4777 9.48878 10.4813 9.51405C10.4931 9.60023 10.5058 9.68664 10.5194 9.77327C10.5217 9.78967 10.5227 9.80608 10.526 9.82412L10.583 9.81691V9.79525L10.5581 9.58952C10.5532 9.54948 10.5496 9.51044 10.544 9.47139C10.5408 9.44513 10.5408 9.41858 10.544 9.39231L10.5515 9.25909L10.5676 8.99167C10.5706 8.94377 10.5716 8.8952 10.5745 8.8473C10.5787 8.78473 10.5824 8.72195 10.5857 8.65895C10.5885 8.61302 10.5909 8.56708 10.5929 8.52114C10.5957 8.46711 10.5996 8.41319 10.6044 8.35938C10.6055 8.37403 10.6063 8.38923 10.607 8.40498C10.6114 8.47083 10.6153 8.53689 10.6188 8.60317L10.6359 8.90373L10.646 9.07239L10.6615 9.36508L10.6648 9.40806C10.669 9.44612 10.6615 9.48386 10.6582 9.52159L10.6372 9.69353C10.6339 9.72602 10.629 9.7585 10.625 9.79131C10.6244 9.79919 10.6244 9.80772 10.6221 9.81723C10.6424 9.82019 10.6608 9.82216 10.6812 9.82478C10.6841 9.81067 10.6854 9.79755 10.6877 9.78377C10.7035 9.67723 10.7188 9.57037 10.7337 9.46319C10.735 9.45531 10.7383 9.44711 10.7402 9.43891C10.8472 9.118 10.9522 8.79677 11.0585 8.4752C11.0638 8.46044 11.0677 8.44633 11.0759 8.43222L11.0723 8.45453C11.0244 8.68684 10.9745 8.9185 10.9269 9.15016C10.9055 9.25887 10.8833 9.36759 10.8603 9.47631C10.8587 9.48531 10.8558 9.49403 10.8518 9.50223L10.7251 9.81887C10.7229 9.82325 10.7209 9.82839 10.7189 9.8343C10.7386 9.84184 10.7547 9.84939 10.7737 9.85694L10.7812 9.84119L10.9135 9.53045C10.9187 9.51995 10.9227 9.50978 10.9295 9.50125L11.5021 8.62778C11.5057 8.62319 11.5087 8.61859 11.5143 8.61531C11.5123 8.61991 11.51 8.6245 11.5074 8.62909L11.0365 9.56425C11.0317 9.57322 11.0265 9.58175 11.0208 9.58984L10.8167 9.86186L10.8058 9.87662L10.8524 9.91305L10.8626 9.90058C10.932 9.81198 11.0017 9.72328 11.072 9.63447C11.0797 9.62447 11.0884 9.61524 11.0979 9.60691C11.3571 9.37525 11.6165 9.14392 11.8762 8.91292C11.8805 8.90931 11.8834 8.9057 11.8903 8.90373L11.8818 8.91423C11.7761 9.03389 11.6696 9.15322 11.5622 9.27222C11.4346 9.41484 11.3075 9.55747 11.1809 9.70009C11.1739 9.70731 11.1668 9.71377 11.1596 9.71945L10.8928 9.92912L10.8797 9.93963C10.8921 9.95537 10.9033 9.97047 10.9164 9.98622L10.9305 9.97572L11.2039 9.77097L11.2255 9.75719C11.5401 9.59925 11.8538 9.44131 12.1666 9.28338C12.1714 9.28075 12.1764 9.27933 12.1817 9.27911C12.1677 9.28852 12.1536 9.2977 12.1393 9.30667L11.2888 9.86481C11.2812 9.86962 11.2733 9.87389 11.2652 9.87761C11.1605 9.92289 11.0549 9.96751 10.9512 10.0125L10.9345 10.019C10.9433 10.0374 10.9496 10.0548 10.9574 10.0732L10.9725 10.0682C11.0779 10.0266 11.1825 9.98294 11.2888 9.94258C11.3151 9.93208 11.344 9.92748 11.3725 9.92158L11.8558 9.82117C12.0061 9.79033 12.1551 9.75883 12.3057 9.72766C12.319 9.72459 12.3327 9.72175 12.3467 9.71912C12.3503 9.71912 12.3536 9.71847 12.3589 9.72044L12.3129 9.73553C11.9927 9.84162 11.6724 9.94706 11.3522 10.0518C11.3279 10.0604 11.301 10.0627 11.2757 10.0666L11.0631 10.0971L10.9866 10.108L10.9679 10.1112C10.9699 10.1306 10.9729 10.1486 10.9742 10.1696L11.0237 10.1644L11.2009 10.1434C11.2452 10.1378 11.2915 10.1316 11.3377 10.1273C11.3584 10.1257 11.3794 10.1276 11.4007 10.1286C11.4457 10.1306 11.4906 10.1345 11.5376 10.1365L11.8027 10.1522L11.9221 10.1588L12.1925 10.1742C12.2565 10.1782 12.3224 10.1811 12.3861 10.1851C12.4019 10.1859 12.4177 10.1873 12.4333 10.1893L12.3854 10.1933L12.1869 10.2041L11.9412 10.2185L11.7558 10.2284C11.6705 10.2336 11.5835 10.2385 11.4975 10.2441C11.4503 10.2461 11.4017 10.2507 11.3541 10.251C11.3269 10.2517 11.2984 10.2464 11.2718 10.2435L11.0969 10.2225L10.985 10.209H10.9742C10.9724 10.2278 10.9703 10.2471 10.9679 10.2668L11.3151 10.317C11.3492 10.3212 11.3791 10.3347 11.4112 10.3449L12.3444 10.653C12.3506 10.6538 12.3564 10.6565 12.3612 10.6605C12.3535 10.6592 12.3457 10.6581 12.3379 10.6572L11.5274 10.4882L11.3135 10.4436C11.3066 10.4417 11.2974 10.439 11.2898 10.4354C11.1846 10.3936 11.079 10.3514 10.9729 10.3088L10.9588 10.3038L10.9348 10.3573L10.9522 10.3655C11.0568 10.4099 11.161 10.4546 11.2649 10.4994C11.273 10.5029 11.2813 10.5075 11.2898 10.5132L12.1633 11.0854C12.1676 11.0887 12.1731 11.0927 12.1767 11.0989C12.1722 11.0967 12.1679 11.0944 12.164 11.092L11.7088 10.8636C11.5498 10.7831 11.39 10.7026 11.2295 10.6221C11.2192 10.6172 11.2096 10.6109 11.2009 10.6034L10.9292 10.4006L10.9164 10.3915C10.904 10.4065 10.8928 10.4213 10.8797 10.4371L10.8921 10.4469C10.9801 10.5171 11.0697 10.5873 11.1579 10.6572C11.1679 10.6645 11.177 10.6729 11.1852 10.6822L11.8805 11.4602C11.8836 11.4639 11.8858 11.4683 11.887 11.473C11.8834 11.469 11.8785 11.4664 11.8749 11.4634C11.6139 11.2305 11.3527 10.9977 11.0913 10.7652C11.0854 10.7599 11.0801 10.754 11.0756 10.7475L10.8629 10.4764C10.8599 10.4723 10.8565 10.4681 10.8528 10.464C10.8377 10.4764 10.8229 10.4876 10.8078 10.5007C10.8093 10.5049 10.8116 10.5089 10.8147 10.5129L11.0211 10.7878C11.0267 10.796 11.032 10.8044 11.0368 10.8131L11.5057 11.7453C11.5084 11.7495 11.5101 11.7542 11.5107 11.7591H11.5097V11.7565Z" fill="#010088"/>
<path fill-rule="evenodd" clip-rule="evenodd" d="M11.5078 11.7559L11.5153 11.7652C11.5138 11.7659 11.5138 11.7668 11.5119 11.7671C11.5113 11.7627 11.5091 11.7599 11.5084 11.7559H11.5078Z" fill="#010088"/>
</svg>
