<svg width="30" height="30" viewBox="0 0 30 30" fill="none" xmlns="http://www.w3.org/2000/svg">
    <rect width="30" height="30" rx="15" fill="#53AE43" />
    <path
        d="M15 12.6143C14.5996 12.6143 14.2236 12.6875 13.8721 12.834C13.5205 12.9902 13.2153 13.1978 12.9565 13.4565C12.6978 13.7153 12.4902 14.0205 12.334 14.3721C12.1875 14.7236 12.1143 15.0996 12.1143 15.5C12.1143 15.9004 12.1875 16.2764 12.334 16.6279C12.4902 16.9795 12.6978 17.2847 12.9565 17.5435C13.2153 17.8022 13.5205 18.0098 13.8721 18.166C14.2236 18.3125 14.5996 18.3857 15 18.3857C15.4004 18.3857 15.7764 18.3125 16.1279 18.166C16.4795 18.0098 16.7847 17.8022 17.0435 17.5435C17.3022 17.2847 17.5098 16.9795 17.666 16.6279C17.8125 16.2764 17.8857 15.9004 17.8857 15.5C17.8857 15.0996 17.8125 14.7236 17.666 14.3721C17.5098 14.0205 17.3022 13.7153 17.0435 13.4565C16.7847 13.1978 16.4795 12.9902 16.1279 12.834C15.7764 12.6875 15.4004 12.6143 15 12.6143ZM15 17.375C14.4824 17.375 14.0405 17.1919 13.6743 16.8257C13.3081 16.4595 13.125 16.0176 13.125 15.5C13.125 14.9824 13.3081 14.5405 13.6743 14.1743C14.0405 13.8081 14.4824 13.625 15 13.625C15.5176 13.625 15.9595 13.8081 16.3257 14.1743C16.6919 14.5405 16.875 14.9824 16.875 15.5C16.875 16.0176 16.6919 16.4595 16.3257 16.8257C15.9595 17.1919 15.5176 17.375 15 17.375ZM18.6768 12.4971C18.6768 12.6924 18.6108 12.8535 18.479 12.9805C18.3472 13.1074 18.1885 13.1709 18.0029 13.1709C17.8174 13.1709 17.6587 13.1074 17.5269 12.9805C17.395 12.8535 17.3291 12.6924 17.3291 12.4971C17.3291 12.3115 17.395 12.1553 17.5269 12.0283C17.6587 11.9014 17.8174 11.8379 18.0029 11.8379C18.1885 11.8379 18.3472 11.9014 18.479 12.0283C18.6108 12.1553 18.6768 12.3115 18.6768 12.4971ZM20.332 11.8232C20.1855 11.4424 19.9683 11.1079 19.6802 10.8198C19.3921 10.5317 19.0625 10.3145 18.6914 10.168C18.4668 10.0898 18.2397 10.0288 18.0103 9.98486C17.7808 9.94092 17.5488 9.91895 17.3145 9.91895C17.0215 9.89941 16.7529 9.88721 16.5088 9.88232C16.2646 9.87744 15.7617 9.875 15 9.875C14.2383 9.875 13.7354 9.87744 13.4912 9.88232C13.2471 9.88721 12.9785 9.89941 12.6855 9.91895C12.4512 9.91895 12.2192 9.94092 11.9897 9.98486C11.7603 10.0288 11.5381 10.0898 11.3232 10.168C10.9424 10.3145 10.6079 10.5317 10.3198 10.8198C10.0317 11.1079 9.81445 11.4424 9.66797 11.8232C9.58984 12.0381 9.52881 12.2603 9.48486 12.4897C9.44092 12.7192 9.41406 12.9512 9.4043 13.1855C9.39453 13.4883 9.38721 13.7593 9.38232 13.9985C9.37744 14.2378 9.375 14.7383 9.375 15.5C9.375 16.2617 9.37744 16.7646 9.38232 17.0088C9.38721 17.2529 9.39453 17.5264 9.4043 17.8291C9.41406 18.0635 9.44092 18.293 9.48486 18.5176C9.52881 18.7422 9.58984 18.9668 9.66797 19.1914C9.81445 19.5723 10.0317 19.9043 10.3198 20.1875C10.6079 20.4707 10.9424 20.6855 11.3232 20.832C11.5381 20.9199 11.7603 20.9883 11.9897 21.0371C12.2192 21.0859 12.4512 21.1104 12.6855 21.1104C12.9883 21.1299 13.2593 21.1421 13.4985 21.147C13.7378 21.1519 14.2383 21.1543 15 21.1543C15.7617 21.1543 16.2646 21.1519 16.5088 21.147C16.7529 21.1421 17.0264 21.1299 17.3291 21.1104C17.5537 21.1104 17.7808 21.0884 18.0103 21.0444C18.2397 21.0005 18.4668 20.9395 18.6914 20.8613C19.0723 20.7148 19.4043 20.4976 19.6875 20.2095C19.9707 19.9214 20.1855 19.5869 20.332 19.2061C20.4199 18.9912 20.4858 18.769 20.5298 18.5396C20.5737 18.3101 20.5957 18.0781 20.5957 17.8438C20.6055 17.541 20.6128 17.27 20.6177 17.0308C20.6226 16.7915 20.625 16.291 20.625 15.5293C20.625 14.7578 20.625 14.2524 20.625 14.0132C20.625 13.7739 20.6152 13.5029 20.5957 13.2002C20.5957 12.9658 20.5737 12.7314 20.5298 12.4971C20.4858 12.2627 20.4199 12.0381 20.332 11.8232ZM19.5703 17.7705C19.5703 17.9561 19.5532 18.1367 19.519 18.3125C19.4849 18.4883 19.4385 18.6592 19.3799 18.8252C19.2822 19.0791 19.1406 19.2988 18.9551 19.4844C18.7695 19.6699 18.5547 19.8066 18.3105 19.8945C18.1445 19.9629 17.9736 20.0117 17.7979 20.041C17.6221 20.0703 17.4463 20.0898 17.2705 20.0996C16.9678 20.1094 16.7017 20.1167 16.4722 20.1216C16.2427 20.1265 15.7471 20.1289 14.9854 20.1289C14.2236 20.1289 13.728 20.1265 13.4985 20.1216C13.269 20.1167 13.0029 20.1094 12.7002 20.0996C12.5146 20.0996 12.3364 20.0825 12.1655 20.0483C11.9946 20.0142 11.8213 19.9629 11.6455 19.8945C11.4014 19.8066 11.1865 19.6699 11.001 19.4844C10.8154 19.2988 10.6738 19.0791 10.5762 18.8252C10.5176 18.6592 10.4712 18.4883 10.437 18.3125C10.4028 18.1367 10.3857 17.9609 10.3857 17.7852C10.3662 17.4922 10.3564 17.2285 10.3564 16.9941C10.3564 16.7598 10.3564 16.2617 10.3564 15.5C10.3564 14.7383 10.3564 14.2427 10.3564 14.0132C10.3564 13.7837 10.3662 13.5176 10.3857 13.2148C10.3857 13.0391 10.4028 12.8633 10.437 12.6875C10.4712 12.5117 10.5176 12.3359 10.5762 12.1602C10.6738 11.916 10.8154 11.7012 11.001 11.5156C11.1865 11.3301 11.4014 11.1885 11.6455 11.0908C11.8213 11.0322 11.9946 10.9858 12.1655 10.9517C12.3364 10.9175 12.5146 10.9004 12.7002 10.9004C12.9932 10.8906 13.2568 10.8833 13.4912 10.8784C13.7256 10.8735 14.2236 10.8711 14.9854 10.8711C15.7471 10.8711 16.2427 10.8711 16.4722 10.8711C16.7017 10.8711 16.9678 10.8809 17.2705 10.9004C17.4463 10.9004 17.6221 10.9175 17.7979 10.9517C17.9736 10.9858 18.1445 11.0322 18.3105 11.0908C18.5547 11.1885 18.7695 11.3301 18.9551 11.5156C19.1406 11.7012 19.2822 11.916 19.3799 12.1602C19.4385 12.3359 19.4849 12.5093 19.519 12.6802C19.5532 12.8511 19.5703 13.0293 19.5703 13.2148C19.5801 13.5078 19.5874 13.7715 19.5923 14.0059C19.5972 14.2402 19.5996 14.7383 19.5996 15.5C19.5996 16.2617 19.5996 16.7573 19.5996 16.9868C19.5996 17.2163 19.5947 17.4775 19.585 17.7705H19.5703Z"
        fill="#FCFCFC" />
</svg>
 