<svg width="16" height="15" viewBox="0 0 16 15" fill="none" xmlns="http://www.w3.org/2000/svg">
<path d="M8.15088 2.87207C7.80908 2.55957 7.42334 2.32031 6.99365 2.1543C6.56396 1.98828 6.11963 1.90527 5.66064 1.90527C5.1626 1.90527 4.68652 1.99805 4.23242 2.18359C3.77832 2.36914 3.37549 2.64258 3.02393 3.00391C2.65283 3.36523 2.37451 3.77539 2.18896 4.23438C2.00342 4.69336 1.91064 5.15967 1.91064 5.6333C1.91064 6.10693 2.00342 6.56836 2.18896 7.01758C2.37451 7.47656 2.65283 7.88672 3.02393 8.24805L7.60889 12.833C7.65771 12.9307 7.73096 13.0063 7.82861 13.0601C7.92627 13.1138 8.03369 13.1406 8.15088 13.1406C8.24854 13.1406 8.34131 13.1187 8.4292 13.0747C8.51709 13.0308 8.59033 12.9697 8.64893 12.8916L13.2778 8.24805C13.6489 7.88672 13.9272 7.47656 14.1128 7.01758C14.2886 6.56836 14.3765 6.10693 14.3765 5.6333C14.3765 5.15967 14.2886 4.69336 14.1128 4.23438C13.9272 3.77539 13.6489 3.36035 13.2778 2.98926C12.9263 2.6377 12.5234 2.36914 12.0693 2.18359C11.6152 1.99805 11.1392 1.90527 10.6411 1.90527C10.1821 1.90527 9.73779 1.98828 9.30811 2.1543C8.87842 2.32031 8.49268 2.55957 8.15088 2.87207ZM12.3989 3.88281C12.8872 4.37109 13.1313 4.95215 13.1313 5.62598C13.1313 6.2998 12.8872 6.88086 12.3989 7.36914L8.15088 11.6172L3.90283 7.36914C3.41455 6.88086 3.17041 6.2998 3.17041 5.62598C3.17041 4.95215 3.41455 4.37109 3.90283 3.88281C4.13721 3.64844 4.40576 3.46777 4.7085 3.34082C5.01123 3.21387 5.32861 3.15039 5.66064 3.15039C5.98291 3.15039 6.29297 3.21387 6.59082 3.34082C6.88867 3.46777 7.15967 3.64844 7.40381 3.88281L7.71143 4.19043C7.82861 4.31738 7.9751 4.38086 8.15088 4.38086C8.32666 4.38086 8.47314 4.31738 8.59033 4.19043L8.89795 3.88281C9.37646 3.41406 9.95996 3.17969 10.6484 3.17969C11.3369 3.17969 11.9204 3.41406 12.3989 3.88281Z" fill="white"/>
</svg>
