<svg width="20" height="22" viewBox="0 0 20 22" fill="none" xmlns="http://www.w3.org/2000/svg">
    <g clip-path="url(#clip0_439_715)">
        <path
            d="M18.3984 14.2812C18.8411 14.2812 19.2188 14.4375 19.5312 14.75C19.8438 15.0625 20 15.4401 20 15.8828V19.5547C20 19.9974 19.8438 20.375 19.5312 20.6875C19.2188 21 18.8411 21.1562 18.3984 21.1562C15.8984 21.1562 13.5156 20.668 11.25 19.6914C8.98438 18.7148 7.03125 17.4062 5.39062 15.7656C3.75 14.125 2.44141 12.1719 1.46484 9.90625C0.488281 7.64062 0 5.25781 0 2.75781C0 2.3151 0.15625 1.9375 0.46875 1.625C0.78125 1.3125 1.15885 1.15625 1.60156 1.15625H5.27344C5.71615 1.15625 6.09375 1.3125 6.40625 1.625C6.71875 1.9375 6.875 2.3151 6.875 2.75781C6.875 3.98177 7.07031 5.17969 7.46094 6.35156C7.64323 6.97656 7.51302 7.51042 7.07031 7.95312L5.39062 10.1797C6.09375 11.4557 6.875 12.5299 7.73438 13.4023C8.59375 14.2747 9.67448 15.0625 10.9766 15.7656L13.2422 14.0469C13.4245 13.8646 13.6654 13.7409 13.9648 13.6758C14.2643 13.6107 14.5573 13.6302 14.8438 13.7344C15.9896 14.099 17.1745 14.2812 18.3984 14.2812Z"
            fill="#53AE43" />
    </g>
    <defs>
        <clipPath id="clip0_439_715">
            <rect width="20" height="21" fill="white" transform="matrix(1 0 0 -1 0 21.5)" />
        </clipPath>
    </defs>
</svg>