<svg width="78" height="78" viewBox="0 0 78 78" fill="none" xmlns="http://www.w3.org/2000/svg">
<rect width="78" height="78" rx="39" fill="#53AE43"/>
<path d="M24.18 38.64C24.18 34.0267 24.8467 30.48 26.18 28C27.5133 25.4933 29.9667 24.24 33.54 24.24C37.0867 24.24 39.5267 25.4933 40.86 28C42.1933 30.48 42.86 34.0267 42.86 38.64C42.86 43.3067 42.1933 46.9067 40.86 49.44C39.5267 51.9467 37.0867 53.2 33.54 53.2C29.9667 53.2 27.5133 51.9467 26.18 49.44C24.8467 46.9067 24.18 43.3067 24.18 38.64ZM41.1 38.64C41.1 35.9733 40.9 33.72 40.5 31.88C40.1267 30.04 39.38 28.5867 38.26 27.52C37.1667 26.4267 35.5933 25.88 33.54 25.88C31.4867 25.88 29.9 26.4267 28.78 27.52C27.6867 28.5867 26.94 30.04 26.54 31.88C26.1667 33.72 25.98 35.9733 25.98 38.64C25.98 41.36 26.1667 43.6533 26.54 45.52C26.94 47.36 27.6867 48.8267 28.78 49.92C29.9 51.0133 31.4867 51.56 33.54 51.56C35.5933 51.56 37.1667 51.0133 38.26 49.92C39.38 48.8267 40.1267 47.36 40.5 45.52C40.9 43.6533 41.1 41.36 41.1 38.64ZM46.4825 26.2V24.56H52.4025V53H50.6025V26.2H46.4825Z" fill="white"/>
</svg>
