<svg width="78" height="78" viewBox="0 0 78 78" fill="none" xmlns="http://www.w3.org/2000/svg">
    <rect width="78" height="78" rx="39" fill="#53AE43" />
    <path
        d="M18.18 38.64C18.18 34.0267 18.8467 30.48 20.18 28C21.5133 25.4933 23.9667 24.24 27.54 24.24C31.0867 24.24 33.5267 25.4933 34.86 28C36.1933 30.48 36.86 34.0267 36.86 38.64C36.86 43.3067 36.1933 46.9067 34.86 49.44C33.5267 51.9467 31.0867 53.2 27.54 53.2C23.9667 53.2 21.5133 51.9467 20.18 49.44C18.8467 46.9067 18.18 43.3067 18.18 38.64ZM35.1 38.64C35.1 35.9733 34.9 33.72 34.5 31.88C34.1267 30.04 33.38 28.5867 32.26 27.52C31.1667 26.4267 29.5933 25.88 27.54 25.88C25.4867 25.88 23.9 26.4267 22.78 27.52C21.6867 28.5867 20.94 30.04 20.54 31.88C20.1667 33.72 19.98 35.9733 19.98 38.64C19.98 41.36 20.1667 43.6533 20.54 45.52C20.94 47.36 21.6867 48.8267 22.78 49.92C23.9 51.0133 25.4867 51.56 27.54 51.56C29.5933 51.56 31.1667 51.0133 32.26 49.92C33.38 48.8267 34.1267 47.36 34.5 45.52C34.9 43.6533 35.1 41.36 35.1 38.64ZM41.5625 51.68C46.5758 48.2133 50.5225 44.8667 53.4025 41.64C56.3092 38.4133 57.7625 35.32 57.7625 32.36C57.7625 30.4133 57.2425 28.8267 56.2025 27.6C55.1892 26.3733 53.5225 25.76 51.2025 25.76C48.8825 25.76 47.1092 26.4667 45.8825 27.88C44.6558 29.2933 43.9625 31.16 43.8025 33.48H42.0425C42.2292 30.5467 43.1358 28.2667 44.7625 26.64C46.3892 25.0133 48.5358 24.2 51.2025 24.2C53.6292 24.2 55.6158 24.88 57.1625 26.24C58.7358 27.6 59.5225 29.6267 59.5225 32.32C59.5225 35.6533 57.9892 39.0133 54.9225 42.4C51.8825 45.7867 48.4025 48.7733 44.4825 51.36H60.4425V52.88H41.5625V51.68Z"
        fill="white" />
</svg>