<svg width="69" height="69" viewBox="0 0 69 69" fill="none" xmlns="http://www.w3.org/2000/svg">
<g clip-path="url(#clip0_397_3158)">
<path d="M12.2189 0.862305H56.7811C63.5377 0.862305 69 6.32462 69 13.0812V55.9184C69 62.675 63.5377 68.1373 56.7811 68.1373H12.2189C5.46232 68.1373 0 62.675 0 55.9184V13.0812C0 6.32462 5.46232 0.862305 12.2189 0.862305Z" fill="#001E36"/>
<path d="M24.7256 17.9688C23.8631 17.9688 23.0006 17.9688 22.1095 17.9979C21.2179 18.0264 20.384 18.0264 19.6077 18.0555C18.8315 18.0841 18.1129 18.0841 17.4229 18.1127C16.7615 18.1412 16.3016 18.1412 15.8127 18.1412C15.6116 18.1412 15.5254 18.2561 15.5254 18.4577V48.0414C15.5254 48.3002 15.6402 48.4155 15.8704 48.4155H21.4481C21.6491 48.3864 21.7931 48.2139 21.764 48.0129V38.7841C22.31 38.7841 22.7127 38.7841 23.0006 38.8127C23.2879 38.8412 23.7477 38.8413 24.4377 38.8413C26.7956 38.8413 28.9518 38.5825 30.9065 37.8639C32.7754 37.1739 34.3856 35.9664 35.5354 34.3563C36.6854 32.7463 37.2604 30.705 37.2604 28.2325C37.2604 26.9388 37.0307 25.7027 36.5995 24.4952C36.1425 23.265 35.4267 22.1473 34.5004 21.2177C33.4071 20.1555 32.091 19.3501 30.6477 18.8598C29.0375 18.2561 27.0829 17.9688 24.7256 17.9688ZM25.3671 23.6316C26.3913 23.651 27.3885 23.83 28.319 24.2073C29.1529 24.5237 29.8429 25.0989 30.3318 25.8461C30.7904 26.6193 31.0197 27.5069 30.9932 28.4055C30.9932 29.6702 30.7054 30.648 30.1016 31.3666C29.4688 32.0852 28.664 32.6318 27.7443 32.8905C26.6802 33.2355 25.559 33.4075 24.4377 33.4075H22.9138C22.5688 33.4075 22.1957 33.3789 21.7931 33.3504V23.6904C21.9941 23.6612 22.3968 23.6327 22.972 23.6618C23.5181 23.6327 24.179 23.6327 24.9266 23.6327C25.074 23.6291 25.2208 23.6287 25.3671 23.6316ZM49.4793 25.0995C47.4379 25.0995 45.7415 25.4154 44.3906 26.1054C43.1545 26.6805 42.0904 27.6002 41.3718 28.75C40.7395 29.8141 40.394 30.9925 40.394 32.2291C40.3694 33.2462 40.5966 34.2536 41.0554 35.1616C41.5931 36.1285 42.3397 36.9633 43.2407 37.6052C44.5055 38.4702 45.8779 39.1661 47.3231 39.6752C48.7316 40.2212 49.6804 40.6525 50.1408 41.0261C50.6006 41.4002 50.8308 41.7737 50.8308 42.1764C50.8308 42.6939 50.5143 43.1829 50.0545 43.3839C49.537 43.6427 48.7607 43.7866 47.6681 43.7866C46.5183 43.7866 45.3679 43.6427 44.2752 43.3554C43.0206 43.0752 41.8177 42.5999 40.7104 41.9468C40.6241 41.8891 40.5379 41.8605 40.4516 41.9182C40.3654 41.9754 40.3368 42.0902 40.3368 42.1764V47.1789C40.3083 47.4091 40.4516 47.6102 40.6533 47.725C41.5856 48.1605 42.5717 48.47 43.5857 48.6452C44.8795 48.9039 46.1727 49.0187 47.495 49.0187C49.565 49.0187 51.2906 48.7029 52.6991 48.0991C53.9929 47.5816 55.1141 46.6905 55.919 45.5402C56.6727 44.4093 57.0639 43.0755 57.0402 41.7166C57.0686 40.6901 56.8415 39.6726 56.3793 38.7555C55.8327 37.7777 55.0565 36.9729 54.1077 36.3691C52.7198 35.4975 51.2337 34.7929 49.6804 34.27C48.9867 33.9829 48.3056 33.6664 47.639 33.3212C47.2654 33.1202 46.9204 32.8614 46.6616 32.545C46.4891 32.3148 46.3743 32.0566 46.3743 31.7979C46.3743 31.5391 46.4606 31.2518 46.604 31.0216C46.8056 30.7343 47.1215 30.5327 47.495 30.4464C48.0416 30.303 48.6454 30.2162 49.22 30.2448C50.3127 30.2448 51.3763 30.3887 52.4404 30.6189C53.4182 30.82 54.3379 31.1364 55.2004 31.5968C55.3152 31.6539 55.4591 31.6539 55.7179 31.5968C55.7628 31.5635 55.7993 31.5201 55.8243 31.4701C55.8493 31.4201 55.8621 31.3648 55.8618 31.3089V26.6229C55.8618 26.5075 55.8327 26.3927 55.8041 26.2779C55.7465 26.163 55.6316 26.0477 55.5168 26.0191C54.7239 25.695 53.893 25.4728 53.0441 25.3577C51.8636 25.1858 50.6723 25.0999 49.4793 25.0995Z" fill="#31A8FF"/>
</g>
<defs>
<clipPath id="clip0_397_3158">
<rect width="69" height="69" fill="white"/>
</clipPath>
</defs>
</svg>
