<svg width="69" height="69" viewBox="0 0 69 69" fill="none" xmlns="http://www.w3.org/2000/svg">
<path d="M52.8281 0H16.1719C7.2404 0 0 7.2404 0 16.1719V52.8281C0 61.7596 7.2404 69 16.1719 69H52.8281C61.7596 69 69 61.7596 69 52.8281V16.1719C69 7.2404 61.7596 0 52.8281 0Z" fill="#023430"/>
<path d="M46.1364 28.9991C43.2964 16.4711 37.3775 13.1359 35.8676 10.7783C35.2446 9.73986 34.693 8.66022 34.2167 7.54688C34.1369 8.66004 33.9903 9.36082 33.0442 10.205C31.1448 11.8985 23.0778 18.4723 22.3988 32.7071C21.7662 45.9793 32.1558 54.1631 33.5283 55.0092C34.5838 55.5286 35.8692 55.0202 36.4964 54.5434C41.5045 51.1064 48.3474 41.9428 46.1418 28.9991" fill="#10AA50"/>
<path d="M34.6471 47.9419C34.3856 51.2269 34.1983 53.1358 33.5342 55.013C33.5342 55.013 33.97 58.1404 34.2762 61.4532H35.3594C35.6182 59.1204 36.0127 56.8046 36.5411 54.5176C35.1387 53.8276 34.701 50.8245 34.6471 47.9419Z" fill="#B8C4C2"/>
<path d="M36.5393 54.5192C35.1221 53.8645 34.7121 50.7981 34.649 47.9416C34.9993 43.2294 35.1015 38.502 34.9552 33.7791C34.8808 31.301 34.9903 10.8263 34.3447 7.82861C34.7861 8.84405 35.2949 9.82878 35.8678 10.7762C37.3778 13.1357 43.2986 16.4709 46.1367 28.9989C48.3477 41.9205 41.542 51.0598 36.5393 54.5192Z" fill="#12924F"/>
</svg>
