<svg width="69" height="69" viewBox="0 0 69 69" fill="none" xmlns="http://www.w3.org/2000/svg">
<g clip-path="url(#clip0_397_3236)">
<path d="M52.8281 0H16.1719C7.2404 0 0 7.2404 0 16.1719V52.8281C0 61.7596 7.2404 69 16.1719 69H52.8281C61.7596 69 69 61.7596 69 52.8281V16.1719C69 7.2404 61.7596 0 52.8281 0Z" fill="#F4F2ED"/>
<path d="M11.2222 54.7253H19.7981V33.8978L7.54688 24.7095V51.05C7.54688 53.0836 9.19479 54.7253 11.2222 54.7253Z" fill="#4285F4"/>
<path d="M49.2012 54.7255H57.7774C59.811 54.7255 61.4527 53.0776 61.4527 51.0502V24.7095L49.2012 33.8981" fill="#34A853"/>
<path d="M49.2012 17.9712V33.8981L61.4527 24.7098V19.8086C61.4527 15.2635 56.2642 12.6722 52.6318 15.3983" fill="#FBBC04"/>
<path d="M19.7988 33.8978V17.9712L34.5004 28.997L49.202 17.9707V33.8976L34.5004 44.9241" fill="#EA4335"/>
<path d="M7.54688 19.8086V24.7092L19.7981 33.8978V17.9712L16.3678 15.3983C12.7292 12.6722 7.54688 15.2635 7.54688 19.8086Z" fill="#C5221F"/>
</g>
<defs>
<clipPath id="clip0_397_3236">
<rect width="69" height="69" fill="white"/>
</clipPath>
</defs>
</svg>
