<svg width="69" height="69" viewBox="0 0 69 69" fill="none" xmlns="http://www.w3.org/2000/svg">
<g clip-path="url(#clip0_397_3146)">
<path d="M52.8281 0H16.1719C7.2404 0 0 7.2404 0 16.1719V52.8281C0 61.7596 7.2404 69 16.1719 69H52.8281C61.7596 69 69 61.7596 69 52.8281V16.1719C69 7.2404 61.7596 0 52.8281 0Z" fill="#330000"/>
<path d="M33.3499 41.0586H22.6549L20.4698 47.815C20.4124 48.0737 20.1825 48.2462 19.9237 48.2174H14.5186C14.2024 48.2174 14.1161 48.0449 14.2024 47.6999L23.46 21.0486C23.5462 20.7613 23.6325 20.4449 23.7473 20.0999C23.8624 19.4961 23.9198 18.8638 23.9198 18.2312C23.8912 18.0876 24.0061 17.9436 24.15 17.9151H31.5961C31.8262 17.9151 31.9411 18.0013 31.9699 18.145L42.4636 47.7576C42.5498 48.0737 42.4636 48.2174 42.1762 48.2174H36.1673C35.9662 48.2462 35.7649 48.1026 35.7075 47.9012L33.3499 41.0586ZM24.3225 35.2225H31.6249C31.4524 34.6187 31.2225 33.8999 30.9637 33.1525C30.705 32.3762 30.4462 31.5426 30.1875 30.6801C29.8999 29.7887 29.6411 28.9262 29.3536 28.0349C29.0662 27.1438 28.8075 26.3099 28.5773 25.4762C28.3474 24.6714 28.1461 23.9237 27.945 23.2337H27.8873C27.6286 24.4701 27.3124 25.7064 26.91 26.9425C26.4787 28.3225 26.0475 29.7599 25.5874 31.1976C25.2162 32.5545 24.7942 33.8971 24.3225 35.2225ZM48.8749 22.9461C47.9261 22.975 47.0062 22.6011 46.3162 21.94C45.6551 21.2211 45.3101 20.2724 45.3386 19.2951C45.3101 18.3175 45.6836 17.3976 46.3736 16.7361C47.0636 16.0747 47.9838 15.73 48.9326 15.73C50.0538 15.73 50.9163 16.075 51.5486 16.7361C52.1859 17.4331 52.5263 18.3511 52.4974 19.2951C52.5262 20.2724 52.1812 21.2211 51.4912 21.94C50.8301 22.63 49.8525 23.0038 48.8749 22.9461ZM45.6551 47.9012V25.7638C45.6551 25.4762 45.7699 25.3611 46.0286 25.3611H51.7211C51.9799 25.3611 52.095 25.5051 52.095 25.7638V47.9012C52.095 48.2174 51.9799 48.3613 51.7211 48.3613H46.0863C45.7987 48.3613 45.6551 48.1888 45.6551 47.9012Z" fill="#FF9A00"/>
</g>
<defs>
<clipPath id="clip0_397_3146">
<rect width="69" height="69" fill="white"/>
</clipPath>
</defs>
</svg>
