<svg width="69" height="69" viewBox="0 0 69 69" fill="none" xmlns="http://www.w3.org/2000/svg">
<g clip-path="url(#clip0_397_3386)">
<path d="M52.8281 0H16.1719C7.2404 0 0 7.2404 0 16.1719V52.8281C0 61.7596 7.2404 69 16.1719 69H52.8281C61.7596 69 69 61.7596 69 52.8281V16.1719C69 7.2404 61.7596 0 52.8281 0Z" fill="#0073AA"/>
<path d="M11.3779 34.4983C11.3779 43.6503 16.6966 51.5594 24.409 55.3075L13.3797 25.0887C12.0579 28.0495 11.3758 31.2559 11.3779 34.4983ZM50.108 33.3315C50.108 30.4742 49.0816 28.4953 48.2013 26.955C47.0291 25.0504 45.9305 23.4376 45.9305 21.5331C45.9305 19.4075 47.5426 17.4292 49.8131 17.4292C49.9158 17.4292 50.0128 17.4418 50.1128 17.4475C45.9992 13.6789 40.5188 11.3779 34.4991 11.3779C26.4218 11.3779 19.3151 15.5222 15.181 21.7996C15.7233 21.8158 16.2346 21.8274 16.6688 21.8274C19.0873 21.8274 22.8309 21.5336 22.8309 21.5336C24.0772 21.4603 24.2243 23.2909 22.9791 23.4384C22.9791 23.4384 21.7266 23.5858 20.3328 23.6589L28.7525 48.7032L33.8124 33.5277L30.2101 23.658C28.9651 23.585 27.7856 23.4376 27.7856 23.4376C26.5396 23.3645 26.6857 21.4595 27.9317 21.5331C27.9317 21.5331 31.7499 21.8263 34.0218 21.8263C36.44 21.8263 40.1838 21.5331 40.1838 21.5331C41.4312 21.4595 41.5776 23.2901 40.3321 23.4376C40.3321 23.4376 39.0769 23.585 37.6858 23.658L46.0415 48.5126L48.3476 40.8062C49.3473 37.6079 50.108 35.311 50.108 33.3315Z" fill="white"/>
<path d="M34.905 36.5212L27.9678 56.6794C30.0887 57.304 32.2883 57.6213 34.4993 57.6214C37.1144 57.6223 39.7105 57.179 42.1772 56.3107C42.1131 56.2096 42.058 56.1029 42.0128 55.9921L34.905 36.5212ZM54.7872 23.4058C54.8922 24.1938 54.9443 24.988 54.943 25.783C54.943 28.1293 54.5047 30.7669 53.1848 34.0649L46.1223 54.4843C52.9962 50.4759 57.6197 43.029 57.6197 34.4991C57.62 30.4791 56.5933 26.6989 54.7872 23.4058Z" fill="white"/>
<path d="M34.4995 7.54688C19.638 7.54688 7.54688 19.6372 7.54688 34.4984C7.54688 49.3614 19.638 61.4512 34.4995 61.4512C49.3601 61.4512 61.4531 49.3614 61.4531 34.4984C61.4526 19.6372 49.3601 7.54688 34.4995 7.54688ZM34.4995 60.216C20.3194 60.216 8.78268 48.679 8.78268 34.4984C8.78268 20.3186 20.3192 8.78268 34.4995 8.78268C48.6787 8.78268 60.2146 20.3186 60.2146 34.4984C60.2146 48.679 48.6787 60.216 34.4995 60.216Z" fill="white"/>
</g>
<defs>
<clipPath id="clip0_397_3386">
<rect width="69" height="69" fill="white"/>
</clipPath>
</defs>
</svg>
