<svg width="69" height="69" viewBox="0 0 69 69" fill="none" xmlns="http://www.w3.org/2000/svg">
<g clip-path="url(#clip0_397_3232)">
<path d="M1.46394 34.0869C1.46234 39.8842 2.97713 45.5449 5.85748 50.5343L1.18848 67.5815L18.6342 63.0072C23.4595 65.634 28.8659 67.0104 34.3598 67.0108H34.3743C52.5108 67.0108 67.2744 52.2526 67.2822 34.1128C67.2857 25.3228 63.8656 17.0572 57.6519 10.8387C51.4392 4.62064 43.1766 1.19444 34.3729 1.19043C16.2342 1.19043 1.4717 15.9479 1.46421 34.0869" fill="url(#paint0_linear_397_3232)"/>
<path d="M0.288116 34.0764C0.286244 40.0823 1.85533 45.9454 4.83837 51.1135L0.00195312 68.7719L18.0733 64.0336C23.0525 66.7484 28.6586 68.1798 34.3632 68.1819H34.3779C53.1651 68.1819 68.459 52.8928 68.4671 34.1037C68.4703 24.9978 64.9272 16.4351 58.4915 9.99377C52.055 3.55323 43.4968 0.00374419 34.3779 0C15.5874 0 0.295604 15.287 0.288116 34.0764ZM11.0502 50.2234L10.3755 49.1523C7.539 44.6422 6.04186 39.4303 6.044 34.0785C6.04988 18.4612 18.7598 5.75535 34.3886 5.75535C41.9572 5.75856 49.07 8.70898 54.42 14.0621C59.7696 19.4157 62.7133 26.5324 62.7115 34.1015C62.7045 49.7188 49.9943 62.4263 34.3779 62.4263H34.3666C29.2818 62.4236 24.2948 61.058 19.9456 58.4775L18.9106 57.8637L8.18674 60.6753L11.0502 50.2234Z" fill="url(#paint1_linear_397_3232)"/>
<path d="M25.8582 19.8304C25.22 18.4122 24.5485 18.3836 23.9417 18.3587C23.4448 18.3373 22.8767 18.3389 22.3092 18.3389C21.7412 18.3389 20.8182 18.5526 20.0381 19.4044C19.2572 20.257 17.0566 22.3174 17.0566 26.5079C17.0566 30.6985 20.109 34.7486 20.5345 35.3174C20.9605 35.8852 26.427 44.76 35.0846 48.1742C42.2799 51.0115 43.7441 50.4472 45.3057 50.3049C46.8676 50.1631 50.3454 48.245 51.0549 46.2561C51.765 44.2674 51.765 42.5627 51.5521 42.2065C51.3392 41.8516 50.7712 41.6384 49.9194 41.2127C49.0676 40.7869 44.8797 38.726 44.099 38.4417C43.3181 38.1577 42.7503 38.0159 42.1823 38.8688C41.6142 39.7203 39.9831 41.6384 39.4859 42.2065C38.9893 42.7759 38.4921 42.8467 37.6406 42.4207C36.7882 41.9933 34.0451 41.095 30.7906 38.1935C28.2584 35.9358 26.549 33.1477 26.052 32.2948C25.5551 31.4433 25.9988 30.9817 26.4259 30.5572C26.8086 30.1756 27.278 29.5626 27.7043 29.0655C28.129 28.568 28.2707 28.2131 28.5548 27.6451C28.8391 27.0765 28.6968 26.579 28.4842 26.153C28.2707 25.727 26.6155 21.5145 25.8582 19.8304Z" fill="white"/>
</g>
<defs>
<linearGradient id="paint0_linear_397_3232" x1="3305.87" y1="6640.3" x2="3305.87" y2="1.19043" gradientUnits="userSpaceOnUse">
<stop stop-color="#1FAF38"/>
<stop offset="1" stop-color="#60D669"/>
</linearGradient>
<linearGradient id="paint1_linear_397_3232" x1="3423.26" y1="6877.19" x2="3423.26" y2="0" gradientUnits="userSpaceOnUse">
<stop stop-color="#F9F9F9"/>
<stop offset="1" stop-color="white"/>
</linearGradient>
<clipPath id="clip0_397_3232">
<rect width="68.47" height="69" fill="white"/>
</clipPath>
</defs>
</svg>
