<svg width="69" height="69" viewBox="0 0 69 69" fill="none" xmlns="http://www.w3.org/2000/svg">
<g clip-path="url(#clip0_397_3195)">
<path d="M52.8281 0H16.1719C7.2404 0 0 7.2404 0 16.1719V52.8281C0 61.7596 7.2404 69 16.1719 69H52.8281C61.7596 69 69 61.7596 69 52.8281V16.1719C69 7.2404 61.7596 0 52.8281 0Z" fill="#F4F2ED"/>
<path d="M34.5001 39.608C37.2773 39.608 39.5284 37.3566 39.5284 34.5796C39.5284 31.8027 37.2773 29.5513 34.5001 29.5513C31.7228 29.5513 29.4717 31.8027 29.4717 34.5796C29.4717 37.3566 31.7231 39.608 34.5001 39.608Z" fill="#00D8FF"/>
<path d="M34.5005 24.3555C41.2518 24.3555 47.5235 25.3242 52.2524 26.9524C57.95 28.9138 61.4531 31.887 61.4531 34.5793C61.4531 37.3849 57.7406 40.5435 51.622 42.5707C46.9963 44.1032 40.9092 44.9032 34.5005 44.9032C27.9299 44.9032 21.7078 44.1523 17.0298 42.5537C11.1114 40.5308 7.54688 37.3315 7.54688 34.5793C7.54688 31.9088 10.8918 28.9585 16.5093 27.0001C21.2558 25.3452 27.6822 24.3555 34.4995 24.3555H34.5005Z" stroke="#00D8FF" stroke-width="2.40179"/>
<path d="M25.6005 29.497C28.9734 23.6487 32.9454 18.6995 36.7183 15.4166C41.2637 11.4607 45.5897 9.91147 47.9217 11.2562C50.352 12.6577 51.2337 17.4521 49.9332 23.7651C48.9508 28.5377 46.6021 34.2102 43.4003 39.7621C40.1177 45.454 36.3591 50.4689 32.6376 53.7216C27.9287 57.8379 23.376 59.3276 20.992 57.9527C18.6786 56.6196 17.794 52.2475 18.904 46.4028C19.8417 41.4641 22.1949 35.4027 25.5994 29.497H25.6005Z" stroke="#00D8FF" stroke-width="2.40179"/>
<path d="M25.6085 39.777C22.2261 33.9352 19.9232 28.0211 18.9621 23.1129C17.805 17.1992 18.623 12.6778 20.9531 11.329C23.3813 9.92316 27.9749 11.5538 32.7947 15.8334C36.4388 19.0689 40.1807 23.9358 43.3916 29.4822C46.6836 35.1688 49.1509 40.93 50.1107 45.7784C51.3252 51.914 50.3423 56.6019 47.9604 57.9806C45.6495 59.3185 41.4202 57.9021 36.9107 54.0214C33.1006 50.7429 29.0242 45.677 25.6085 39.777Z" stroke="#00D8FF" stroke-width="2.40179"/>
</g>
<defs>
<clipPath id="clip0_397_3195">
<rect width="69" height="69" fill="white"/>
</clipPath>
</defs>
</svg>
