<svg width="69" height="69" viewBox="0 0 69 69" fill="none" xmlns="http://www.w3.org/2000/svg">
<path d="M52.8281 0H16.1719C7.2404 0 0 7.2404 0 16.1719V52.8281C0 61.7596 7.2404 69 16.1719 69H52.8281C61.7596 69 69 61.7596 69 52.8281V16.1719C69 7.2404 61.7596 0 52.8281 0Z" fill="#F4F2ED"/>
<mask id="mask0_397_3135" style="mask-type:luminance" maskUnits="userSpaceOnUse" x="16" y="7" width="37" height="55">
<path d="M16.4414 7.54688H52.3861V61.4531H16.4414V7.54688Z" fill="white"/>
</mask>
<g mask="url(#mask0_397_3135)">
<path d="M25.4289 61.4532C30.3883 61.4532 34.4132 57.4283 34.4132 52.4689V43.4844H25.4289C20.4695 43.4844 16.4443 47.5096 16.4443 52.4689C16.4443 57.4283 20.4695 61.4532 25.4289 61.4532Z" fill="#0ACF83"/>
<path d="M16.4443 34.4999C16.4443 29.5405 20.4695 25.5156 25.4289 25.5156H34.4132V43.4842H25.4289C20.4695 43.4842 16.4443 39.4593 16.4443 34.4999Z" fill="#A259FF"/>
<path d="M16.4443 16.5312C16.4443 11.5718 20.4695 7.54688 25.4289 7.54688H34.4132V25.5157H25.4289C20.4695 25.5157 16.4443 21.4905 16.4443 16.5312Z" fill="#F24E1E"/>
<path d="M34.4131 7.54688H43.3974C48.3567 7.54688 52.3819 11.5718 52.3819 16.5312C52.3819 21.4905 48.3567 25.5157 43.3974 25.5157H34.4131V7.54688Z" fill="#FF7262"/>
<path d="M52.3819 34.4999C52.3819 39.4593 48.3567 43.4842 43.3974 43.4842C38.438 43.4842 34.4131 39.4593 34.4131 34.4999C34.4131 29.5405 38.438 25.5156 43.3974 25.5156C48.3567 25.5156 52.3819 29.5405 52.3819 34.4999Z" fill="#1ABCFE"/>
</g>
</svg>
