<svg width="69" height="69" viewBox="0 0 69 69" fill="none" xmlns="http://www.w3.org/2000/svg">
<g clip-path="url(#clip0_397_3207)">
<path d="M52.8281 0H16.1719C7.2404 0 0 7.2404 0 16.1719V52.8281C0 61.7596 7.2404 69 16.1719 69H52.8281C61.7596 69 69 61.7596 69 52.8281V16.1719C69 7.2404 61.7596 0 52.8281 0Z" fill="#F4F2ED"/>
<path d="M9.23145 16.4751L34.3181 7.54688L60.065 16.3368L55.904 49.5129L34.3181 61.4531L13.0825 49.6679L9.23145 16.4751Z" fill="#E23237"/>
<path d="M60.0653 16.3371L34.3184 7.54688V61.4531L55.9043 49.5129L60.0653 16.3371Z" fill="#B52E31"/>
<path d="M34.3564 13.8472L18.7236 48.6167L24.5574 48.4986L27.7074 40.6421H41.6893L45.1124 48.5596L50.6747 48.6773L34.3564 13.8472ZM34.395 25.009L39.6845 36.0549H29.7828L34.4104 25.009H34.395Z" fill="white"/>
</g>
<defs>
<clipPath id="clip0_397_3207">
<rect width="69" height="69" fill="white"/>
</clipPath>
</defs>
</svg>
