<svg width="69" height="69" viewBox="0 0 69 69" fill="none" xmlns="http://www.w3.org/2000/svg">
<g clip-path="url(#clip0_397_3170)">
<path d="M12.2189 0.862305H56.7811C63.5377 0.862305 69 6.32462 69 13.0812V55.9184C69 62.675 63.5377 68.1373 56.7811 68.1373H12.2189C5.46232 68.1373 0 62.675 0 55.9184V13.0812C0 6.32462 5.46232 0.862305 12.2189 0.862305Z" fill="#470137"/>
<path d="M36.2827 18.5439L27.6577 32.7751L36.8574 47.8689C36.9151 47.9837 36.9436 48.099 36.9151 48.2139C36.8865 48.3287 36.7711 48.2424 36.5986 48.2715H30.0151C29.5552 48.2715 29.2388 48.2424 29.0377 47.9551C28.434 46.7476 27.8011 45.5687 27.1974 44.3612C26.5936 43.1828 25.9327 41.9753 25.2427 40.7387C24.5527 39.5021 23.8627 38.2665 23.1727 37.0014H23.1151C22.5113 38.2374 21.8499 39.474 21.189 40.7101C20.532 41.934 19.8803 43.1608 19.2338 44.3903C18.5724 45.5978 17.9115 46.8339 17.2501 48.0128C17.1352 48.3001 16.9051 48.3287 16.5886 48.3287H10.2638C10.149 48.3287 10.0627 48.3864 10.0627 48.2424C10.0499 48.1887 10.0483 48.1329 10.0581 48.0785C10.068 48.0241 10.089 47.9724 10.1199 47.9265L19.0613 33.264L10.3501 18.5153C10.2638 18.3999 10.2352 18.2851 10.2924 18.2274C10.3501 18.1412 10.4649 18.1126 10.5802 18.1126H17.1061C17.2501 18.1126 17.394 18.1412 17.5088 18.1703C17.6236 18.2274 17.7099 18.3137 17.7961 18.429C18.3427 19.6651 18.9751 20.9012 19.6365 22.1378C20.3265 23.3739 20.9874 24.5814 21.7065 25.7889C22.3965 26.9964 23.0288 28.2039 23.6326 29.4399H23.6902C24.294 28.1753 24.9263 26.9387 25.5586 25.7312C26.1909 24.5237 26.8524 23.3162 27.5138 22.1087C28.1752 20.9012 28.8076 19.6651 29.4399 18.4862C29.469 18.3714 29.5261 18.2565 29.6124 18.1989C29.7277 18.1412 29.8426 18.1126 29.9865 18.1412H36.0526C36.0866 18.1335 36.1218 18.1326 36.1562 18.1386C36.1905 18.1446 36.2234 18.1573 36.2528 18.176C36.2822 18.1948 36.3076 18.2192 36.3276 18.2478C36.3475 18.2764 36.3616 18.3087 36.369 18.3428C36.3976 18.3714 36.3399 18.4862 36.2827 18.5439ZM49.5652 48.8753C47.4376 48.9039 45.3099 48.4726 43.3838 47.5815C41.5726 46.7476 40.0777 45.3676 39.0427 43.6712C37.9786 41.9176 37.4611 39.7328 37.4611 37.1162C37.4326 34.989 37.9786 32.8899 39.0427 31.0501C40.1349 29.1812 41.7165 27.6287 43.614 26.5937C45.6263 25.4724 48.0413 24.9264 50.8876 24.9264C51.0315 24.9264 51.2326 24.9264 51.4913 24.9549C51.7501 24.984 52.0374 24.984 52.3824 25.0126V15.9278C52.3824 15.7262 52.4686 15.6114 52.6702 15.6114H58.5061C58.6501 15.5828 58.7649 15.6976 58.794 15.8124V43.2399C58.794 43.7574 58.8226 44.3326 58.8511 44.9649C58.9088 45.5687 58.9374 46.1439 58.9665 46.6328C58.9665 46.8339 58.8802 47.0064 58.6786 47.0926C57.1728 47.7256 55.6011 48.1885 53.9926 48.4726C52.5263 48.7314 51.0601 48.8753 49.5652 48.8753ZM52.3824 43.1251V30.4749C52.1236 30.4178 51.8649 30.3601 51.6061 30.3315C51.2909 30.2976 50.9743 30.2784 50.6574 30.2739C49.5361 30.2739 48.4149 30.504 47.409 31.0215C46.4265 31.511 45.5852 32.2431 44.9649 33.1487C44.3326 34.0689 44.0161 35.3049 44.0161 36.8003C43.9916 37.8093 44.1575 38.8138 44.5051 39.7614C44.7924 40.5376 45.2236 41.2276 45.7988 41.8028C46.353 42.332 47.0222 42.7255 47.754 42.9526C48.5302 43.2114 49.3351 43.3262 50.1399 43.3262C50.5711 43.3262 50.9738 43.2976 51.3474 43.269C51.7215 43.2976 52.0374 43.2399 52.3824 43.1251Z" fill="#FF61F6"/>
</g>
<defs>
<clipPath id="clip0_397_3170">
<rect width="69" height="69" fill="white"/>
</clipPath>
</defs>
</svg>
