<svg width="69" height="69" viewBox="0 0 69 69" fill="none" xmlns="http://www.w3.org/2000/svg">
<path d="M52.8281 0H16.1719C7.2404 0 0 7.2404 0 16.1719V52.8281C0 61.7596 7.2404 69 16.1719 69H52.8281C61.7596 69 69 61.7596 69 52.8281V16.1719C69 7.2404 61.7596 0 52.8281 0Z" fill="#F4F2ED"/>
<mask id="mask0_397_3262" style="mask-type:luminance" maskUnits="userSpaceOnUse" x="10" y="10" width="49" height="49">
<path d="M10.2422 10.2422H58.7578V58.7578H10.2422V10.2422Z" fill="white"/>
</mask>
<g mask="url(#mask0_397_3262)">
<path d="M46.2171 45.56C46.526 42.9884 46.4332 42.6132 48.3472 43.0283L48.8342 43.0717C50.3069 43.138 52.2322 42.8347 53.3826 42.31C55.818 41.1804 57.2619 39.2928 54.8609 39.7893C49.3838 40.9189 48.986 39.0635 48.986 39.0635C54.7717 30.4786 57.1918 19.5815 55.1016 16.915C49.4086 9.63766 39.5518 13.0793 39.3872 13.1701L39.3341 13.1796C38.2538 12.9524 37.0597 12.8195 35.6762 12.8006C33.1976 12.7629 31.3177 13.4507 29.8886 14.5329C29.8886 14.5329 12.3073 7.28951 13.1243 23.6428C13.2984 27.1222 18.1085 49.9851 23.8506 43.0679C25.9524 40.54 27.9803 38.4039 27.9803 38.4039C28.9846 39.0729 30.1918 39.4141 31.4559 39.291L31.5543 39.2077C31.5254 39.5352 31.5388 39.8652 31.5942 40.1893C30.1161 41.8418 30.5519 42.1318 27.5954 42.7401C24.605 43.356 26.3637 44.4533 27.5084 44.7414C28.8994 45.0902 32.1174 45.5829 34.293 42.5393L34.2057 42.886C34.7857 43.3504 34.7458 46.2214 34.831 48.272C34.9164 50.3226 35.0509 52.2387 35.4698 53.3661C35.8886 54.4939 36.3795 57.4029 40.2645 56.5878C43.511 55.8925 45.9936 54.8898 46.2208 45.5772" fill="black"/>
<path d="M46.2171 45.56C46.526 42.9884 46.4332 42.6132 48.3472 43.0283L48.8342 43.0717C50.3069 43.138 52.2322 42.8347 53.3826 42.31C55.818 41.1804 57.2619 39.2928 54.8609 39.7893C49.3838 40.9189 48.986 39.0635 48.986 39.0635C54.7717 30.4786 57.1918 19.5815 55.1016 16.915C49.4086 9.63766 39.5518 13.0793 39.3872 13.1701L39.3341 13.1796C38.2538 12.9524 37.0597 12.8195 35.6762 12.8006C33.1976 12.7629 31.3177 13.4507 29.8886 14.5329C29.8886 14.5329 12.3073 7.28951 13.1243 23.6428C13.2984 27.1222 18.1085 49.9851 23.8506 43.0679C25.9524 40.54 27.9803 38.4039 27.9803 38.4039C28.9846 39.0729 30.1918 39.4141 31.4559 39.291L31.5543 39.2077C31.5254 39.5352 31.5388 39.8652 31.5942 40.1893C30.1161 41.8418 30.5519 42.1318 27.5954 42.7401C24.605 43.356 26.3637 44.4533 27.5084 44.7414C28.8994 45.0902 32.1174 45.5829 34.293 42.5393L34.2057 42.886C34.7857 43.3504 34.7458 46.2214 34.831 48.272C34.9164 50.3226 35.0509 52.2387 35.4698 53.3661C35.8886 54.4939 36.3795 57.4029 40.2645 56.5878C43.511 55.8925 45.9936 54.8898 46.2208 45.5772" stroke="black" stroke-width="4.07262"/>
<path d="M54.8436 39.8069C49.3667 40.9362 48.9689 39.081 48.9689 39.081C54.7547 30.4959 57.1748 19.5988 55.0862 16.9323C49.3934 9.65497 39.5366 13.0985 39.3717 13.1877L39.3186 13.1972C38.1147 12.9555 36.8908 12.8279 35.6629 12.816C33.1841 12.7783 31.3041 13.4661 29.8753 14.5483C29.8753 14.5483 12.2922 7.3052 13.1107 23.6585C13.2851 27.1378 18.0952 50.0008 23.8373 43.0836C25.9523 40.5403 27.9802 38.4043 27.9802 38.4043C28.9845 39.0732 30.1917 39.4145 31.4558 39.2913L31.5542 39.208C31.5253 39.5356 31.5387 39.8655 31.5941 40.1896C30.116 41.8421 30.5518 42.1321 27.5953 42.7405C24.6049 43.3564 26.3636 44.4536 27.5083 44.7417C28.8993 45.0905 32.1173 45.5832 34.2929 42.5397L34.2056 42.8863C34.7856 43.3507 35.191 45.9053 35.1228 48.2211C35.0546 50.5372 35.0091 52.1253 35.464 53.3684C35.919 54.6114 36.3737 57.4051 40.2587 56.5901C43.5052 55.8947 45.186 54.0885 45.4229 51.083C45.5898 48.9451 45.965 49.2596 45.9917 47.3495L46.2949 46.4436C46.6415 43.5439 46.3515 42.6097 48.3509 43.0456L48.8379 43.0892C50.3106 43.1555 52.238 42.8523 53.3674 42.3273C55.8026 41.1979 57.2467 39.3101 54.8458 39.8069H54.8436Z" fill="#336791"/>
<path d="M39.3701 13.0983C38.7637 13.2878 49.1568 9.29876 55.0657 16.847C57.1506 19.5135 54.7342 30.4106 48.9482 38.9954M34.5261 41.4498C34.3746 46.8434 34.5641 52.2747 35.091 53.5787C35.6177 54.8824 36.7492 57.4637 40.6361 56.6336C43.8826 55.9382 45.065 54.5905 45.5769 51.617L46.7763 42.1093L34.5261 41.4498ZM29.8681 14.4118C29.8681 14.4118 12.2733 7.21797 13.0922 23.5707C13.2666 27.0501 18.0763 49.9131 23.8187 42.9958C25.9146 40.4695 27.8099 38.493 27.8099 38.493L29.8681 14.4118Z" stroke="white" stroke-width="1.35682" stroke-linecap="round" stroke-linejoin="round"/>
<path d="M48.9499 38.9917C48.9499 38.9917 49.3292 40.849 54.8249 39.7157C57.2262 39.2192 55.7801 41.1067 53.3468 42.2363C51.3493 43.1648 46.8691 43.4018 46.7953 42.1226C46.6058 38.8154 49.1529 39.82 48.9691 38.9917C48.8022 38.2451 47.6613 37.5136 46.9109 35.6867C46.2533 34.0946 37.89 21.8711 49.2305 23.6845C49.6475 23.5993 46.274 12.8825 35.6612 12.7269C25.0484 12.5714 25.384 25.775 25.384 25.775" stroke="white" stroke-width="1.35682" stroke-linecap="round" stroke-linejoin="bevel"/>
<path d="M31.5568 40.1249C30.0787 41.7774 30.5145 42.0674 27.5583 42.6757C24.5676 43.2916 26.3265 44.3889 27.471 44.677C28.862 45.0258 32.08 45.5185 34.2556 42.4728C34.9189 41.5442 34.2518 40.0661 33.3422 39.6909C32.9026 39.509 32.315 39.2815 31.5608 40.1268L31.5568 40.1249Z" stroke="white" stroke-width="1.35682" stroke-linejoin="round"/>
<path d="M31.4597 40.0966C31.3079 39.1244 31.778 37.9702 32.2801 36.6172C33.0345 34.5895 34.7744 32.5615 33.3833 26.1238C32.3464 21.3288 25.3858 25.1249 25.3858 25.775C25.3858 26.4251 25.7003 29.0727 25.272 32.1521C24.7093 36.1738 27.8304 39.5737 31.4236 39.2268" stroke="white" stroke-width="1.35682" stroke-linecap="round" stroke-linejoin="round"/>
<path d="M29.8034 25.6784C29.7711 25.8999 30.2107 26.4932 30.7813 26.5727C31.3516 26.6525 31.8387 26.19 31.871 25.9662C31.9031 25.7425 31.4635 25.5 30.8931 25.4204C30.3228 25.3409 29.8317 25.4584 29.8034 25.6784Z" fill="white" stroke="white" stroke-width="0.452812"/>
<path d="M47.1705 25.2257C47.2007 25.4473 46.7629 26.0403 46.1926 26.1201C45.622 26.1996 45.1312 25.7373 45.1029 25.5136C45.0743 25.2899 45.5104 25.0473 46.0808 24.9678C46.6511 24.8883 47.1419 25.0058 47.1705 25.2257Z" fill="white" stroke="white" stroke-width="0.225598"/>
<path d="M49.21 23.6885C49.3046 25.4321 48.8346 26.6164 48.7739 28.4718C48.6869 31.1666 50.0591 34.2519 47.9912 37.341" stroke="white" stroke-width="1.35682" stroke-linecap="round" stroke-linejoin="round"/>
</g>
</svg>
