<svg width="160" height="160" viewBox="0 0 160 160" fill="none" xmlns="http://www.w3.org/2000/svg">
    <rect width="160" height="160" rx="80" fill="#53AE43" />
    <path
        d="M45.788 79.024C45.788 71.6427 46.8547 65.968 48.988 62C51.1213 57.9893 55.0467 55.984 60.764 55.984C66.4387 55.984 70.3427 57.9893 72.476 62C74.6093 65.968 75.676 71.6427 75.676 79.024C75.676 86.4907 74.6093 92.2507 72.476 96.304C70.3427 100.315 66.4387 102.32 60.764 102.32C55.0467 102.32 51.1213 100.315 48.988 96.304C46.8547 92.2507 45.788 86.4907 45.788 79.024ZM72.86 79.024C72.86 74.7573 72.54 71.152 71.9 68.208C71.3027 65.264 70.108 62.9387 68.316 61.232C66.5667 59.4827 64.0493 58.608 60.764 58.608C57.4787 58.608 54.94 59.4827 53.148 61.232C51.3987 62.9387 50.204 65.264 49.564 68.208C48.9667 71.152 48.668 74.7573 48.668 79.024C48.668 83.376 48.9667 87.0453 49.564 90.032C50.204 92.976 51.3987 95.3227 53.148 97.072C54.94 98.8213 57.4787 99.696 60.764 99.696C64.0493 99.696 66.5667 98.8213 68.316 97.072C70.108 95.3227 71.3027 92.976 71.9 90.032C72.54 87.0453 72.86 83.376 72.86 79.024ZM81.728 90.48V88.24L106.112 56.688H109.376V87.984H116.672V90.48H109.376V102H106.56V90.48H81.728ZM106.624 60.144L85.12 87.984H106.624V60.144Z"
        fill="white" />
</svg>