<svg width="150" height="127" viewBox="0 0 150 127" fill="none" xmlns="http://www.w3.org/2000/svg">
<g opacity="0.17" clip-path="url(#clip0_347_3675)">
<path d="M88.8439 55.2933L88.8439 9.91235e-06L150 1.52588e-05L150 43.6514C150 67.3082 146.617 84.4188 139.851 94.9831C130.974 109.092 116.92 119.764 97.6897 127L83.7475 108.481C95.3963 104.421 103.956 98.3777 109.426 90.3514C114.896 82.325 117.959 70.639 118.614 55.2933L88.8439 55.2933Z" fill="#53AE43"/>
<path d="M5.06632 55.2933L5.06633 9.90789e-06L66.2734 1.52588e-05L66.2734 43.6514C66.2734 67.3082 62.8759 84.4188 56.0807 94.9831C47.2228 109.092 33.1787 119.764 13.9485 127L0.0209443 108.481C11.6697 104.421 20.2292 98.3777 25.6993 90.3514C31.1693 82.325 34.2271 70.639 34.8727 55.2933L5.06632 55.2933Z" fill="#53AE43"/>
</g>
<defs>
<clipPath id="clip0_347_3675">
<rect width="150" height="127" fill="white" transform="translate(150 127) rotate(-180)"/>
</clipPath>
</defs>
</svg>
