<svg width="14" height="10" viewBox="0 0 14 10" fill="none" xmlns="http://www.w3.org/2000/svg">
    <path fill-rule="evenodd" clip-rule="evenodd"
        d="M13.4577 5.00016C13.4577 4.8344 13.3918 4.67543 13.2746 4.55822C13.1574 4.44101 12.9984 4.37516 12.8327 4.37516H1.16602C1.00026 4.37516 0.841284 4.44101 0.724074 4.55822C0.606864 4.67543 0.541016 4.8344 0.541016 5.00016C0.541016 5.16592 0.606864 5.32489 0.724074 5.4421C0.841284 5.55931 1.00026 5.62516 1.16602 5.62516H12.8327C12.9984 5.62516 13.1574 5.55931 13.2746 5.4421C13.3918 5.32489 13.4577 5.16592 13.4577 5.00016ZM13.4577 0.833496C13.4577 0.667736 13.3918 0.508765 13.2746 0.391554C13.1574 0.274344 12.9984 0.208496 12.8327 0.208496H1.16602C1.00026 0.208496 0.841284 0.274344 0.724074 0.391554C0.606864 0.508765 0.541016 0.667736 0.541016 0.833496C0.541016 0.999256 0.606864 1.15823 0.724074 1.27544C0.841284 1.39265 1.00026 1.4585 1.16602 1.4585H12.8327C12.9984 1.4585 13.1574 1.39265 13.2746 1.27544C13.3918 1.15823 13.4577 0.999256 13.4577 0.833496ZM13.4577 9.16683C13.4577 9.00107 13.3918 8.8421 13.2746 8.72489C13.1574 8.60768 12.9984 8.54183 12.8327 8.54183H1.16602C1.00026 8.54183 0.841284 8.60768 0.724074 8.72489C0.606864 8.8421 0.541016 9.00107 0.541016 9.16683C0.541016 9.33259 0.606864 9.49156 0.724074 9.60877C0.841284 9.72598 1.00026 9.79183 1.16602 9.79183H12.8327C12.9984 9.79183 13.1574 9.72598 13.2746 9.60877C13.3918 9.49156 13.4577 9.33259 13.4577 9.16683Z"
        fill="#FCFCFC" />
</svg>