<svg width="160" height="160" viewBox="0 0 160 160" fill="none" xmlns="http://www.w3.org/2000/svg">
<rect width="160" height="160" rx="80" fill="#53AE43"/>
<path d="M56.288 79.024C56.288 71.6427 57.3547 65.968 59.488 62C61.6213 57.9893 65.5467 55.984 71.264 55.984C76.9387 55.984 80.8427 57.9893 82.976 62C85.1093 65.968 86.176 71.6427 86.176 79.024C86.176 86.4907 85.1093 92.2507 82.976 96.304C80.8427 100.315 76.9387 102.32 71.264 102.32C65.5467 102.32 61.6213 100.315 59.488 96.304C57.3547 92.2507 56.288 86.4907 56.288 79.024ZM83.36 79.024C83.36 74.7573 83.04 71.152 82.4 68.208C81.8027 65.264 80.608 62.9387 78.816 61.232C77.0667 59.4827 74.5493 58.608 71.264 58.608C67.9787 58.608 65.44 59.4827 63.648 61.232C61.8987 62.9387 60.704 65.264 60.064 68.208C59.4667 71.152 59.168 74.7573 59.168 79.024C59.168 83.376 59.4667 87.0453 60.064 90.032C60.704 92.976 61.8987 95.3227 63.648 97.072C65.44 98.8213 67.9787 99.696 71.264 99.696C74.5493 99.696 77.0667 98.8213 78.816 97.072C80.608 95.3227 81.8027 92.976 82.4 90.032C83.04 87.0453 83.36 83.376 83.36 79.024ZM91.972 59.12V56.496H101.444V102H98.564V59.12H91.972Z" fill="white"/>
</svg>
