<svg width="68" height="73" viewBox="0 0 68 73" fill="none" xmlns="http://www.w3.org/2000/svg">
<path fill-rule="evenodd" clip-rule="evenodd" d="M13.0275 22.6866C14.111 22.4248 15.2185 22.293 16.3294 22.2936C25.1269 22.2936 32.2566 30.4416 32.2566 40.4886C32.2566 50.5386 25.1269 58.6866 16.3294 58.6866C7.53191 58.6866 0.399414 50.5416 0.399414 40.4886C0.399414 40.1946 0.405039 39.8976 0.419102 39.6036H0.399414C0.399414 24.4386 11.1994 12.0996 24.4744 12.0996V18.2076C20.1685 18.2076 16.1972 19.8816 13.0275 22.6866ZM48.6732 22.6866C49.7363 22.4286 50.8388 22.2936 51.9694 22.2936C60.7669 22.2936 67.8994 30.4416 67.8994 40.4886C67.8994 50.5386 60.7669 58.6866 51.9694 58.6866C43.1719 58.6866 36.0422 50.5416 36.0422 40.4886C36.0422 40.1946 36.0479 39.8976 36.0619 39.6036H36.0422C36.0422 24.4386 46.8422 12.0996 60.1172 12.0996V18.2076C55.8085 18.2076 51.8428 19.8816 48.6732 22.6866Z" fill="#53AE43"/>
</svg>
