<svg width="78" height="78" viewBox="0 0 78 78" fill="none" xmlns="http://www.w3.org/2000/svg">
    <rect width="78" height="78" rx="39" fill="#53AE43" />
    <path
        d="M17.68 38.64C17.68 34.0267 18.3467 30.48 19.68 28C21.0133 25.4933 23.4667 24.24 27.04 24.24C30.5867 24.24 33.0267 25.4933 34.36 28C35.6933 30.48 36.36 34.0267 36.36 38.64C36.36 43.3067 35.6933 46.9067 34.36 49.44C33.0267 51.9467 30.5867 53.2 27.04 53.2C23.4667 53.2 21.0133 51.9467 19.68 49.44C18.3467 46.9067 17.68 43.3067 17.68 38.64ZM34.6 38.64C34.6 35.9733 34.4 33.72 34 31.88C33.6267 30.04 32.88 28.5867 31.76 27.52C30.6667 26.4267 29.0933 25.88 27.04 25.88C24.9867 25.88 23.4 26.4267 22.28 27.52C21.1867 28.5867 20.44 30.04 20.04 31.88C19.6667 33.72 19.48 35.9733 19.48 38.64C19.48 41.36 19.6667 43.6533 20.04 45.52C20.44 47.36 21.1867 48.8267 22.28 49.92C23.4 51.0133 24.9867 51.56 27.04 51.56C29.0933 51.56 30.6667 51.0133 31.76 49.92C32.88 48.8267 33.6267 47.36 34 45.52C34.4 43.6533 34.6 41.36 34.6 38.64ZM40.1425 45.8V44.4L55.3825 24.68H57.4225V44.24H61.9825V45.8H57.4225V53H55.6625V45.8H40.1425ZM55.7025 26.84L42.2625 44.24H55.7025V26.84Z"
        fill="white" />
</svg>