<svg width="160" height="160" viewBox="0 0 160 160" fill="none" xmlns="http://www.w3.org/2000/svg">
<rect width="160" height="160" rx="80" fill="#53AE43"/>
<path d="M46.788 79.024C46.788 71.6427 47.8547 65.968 49.988 62C52.1213 57.9893 56.0467 55.984 61.764 55.984C67.4387 55.984 71.3427 57.9893 73.476 62C75.6093 65.968 76.676 71.6427 76.676 79.024C76.676 86.4907 75.6093 92.2507 73.476 96.304C71.3427 100.315 67.4387 102.32 61.764 102.32C56.0467 102.32 52.1213 100.315 49.988 96.304C47.8547 92.2507 46.788 86.4907 46.788 79.024ZM73.86 79.024C73.86 74.7573 73.54 71.152 72.9 68.208C72.3027 65.264 71.108 62.9387 69.316 61.232C67.5667 59.4827 65.0493 58.608 61.764 58.608C58.4787 58.608 55.94 59.4827 54.148 61.232C52.3987 62.9387 51.204 65.264 50.564 68.208C49.9667 71.152 49.668 74.7573 49.668 79.024C49.668 83.376 49.9667 87.0453 50.564 90.032C51.204 92.976 52.3987 95.3227 54.148 97.072C55.94 98.8213 58.4787 99.696 61.764 99.696C65.0493 99.696 67.5667 98.8213 69.316 97.072C71.108 95.3227 72.3027 92.976 72.9 90.032C73.54 87.0453 73.86 83.376 73.86 79.024ZM84.2 99.888C92.2213 94.3413 98.536 88.9867 103.144 83.824C107.795 78.6613 110.12 73.712 110.12 68.976C110.12 65.8613 109.288 63.3227 107.624 61.36C106.003 59.3973 103.336 58.416 99.624 58.416C95.912 58.416 93.0747 59.5467 91.112 61.808C89.1493 64.0693 88.04 67.056 87.784 70.768H84.968C85.2667 66.0747 86.7173 62.4267 89.32 59.824C91.9227 57.2213 95.3573 55.92 99.624 55.92C103.507 55.92 106.685 57.008 109.16 59.184C111.677 61.36 112.936 64.6027 112.936 68.912C112.936 74.2453 110.483 79.6213 105.576 85.04C100.712 90.4587 95.144 95.2373 88.872 99.376H114.408V101.808H84.2V99.888Z" fill="white"/>
</svg>
